<svg width="256" height="256" viewBox="0 0 256 256" fill="none" xmlns="http://www.w3.org/2000/svg">
<path d="M93.3936 177.65C81.6936 177.65 71.6436 175.4 63.2436 170.9C54.8436 166.4 48.3936 160.05 43.8936 151.85C39.4936 143.65 37.2936 134.05 37.2936 123.05C37.2936 114.85 38.5436 107.4 41.0436 100.7C43.6436 94 47.3436 88.25 52.1436 83.45C57.0436 78.65 62.9436 75 69.8436 72.5C76.8436 69.9 84.6936 68.6 93.3936 68.6C97.9936 68.6 102.744 69.15 107.644 70.25C112.644 71.25 117.044 72.8 120.844 74.9C123.644 76.4 125.594 78.3 126.694 80.6C127.794 82.9 128.144 85.25 127.744 87.65C127.444 90.05 126.594 92.2 125.194 94.1C123.794 96 121.994 97.3 119.794 98C117.594 98.6 115.194 98.25 112.594 96.95C109.594 95.55 106.594 94.5 103.594 93.8C100.694 93 97.6436 92.6 94.4436 92.6C88.2436 92.6 83.0436 93.8 78.8436 96.2C74.7436 98.5 71.6436 101.9 69.5436 106.4C67.4436 110.9 66.3936 116.45 66.3936 123.05C66.3936 129.65 67.4436 135.25 69.5436 139.85C71.6436 144.35 74.7436 147.8 78.8436 150.2C83.0436 152.5 88.2436 153.65 94.4436 153.65C97.0436 153.65 99.8436 153.35 102.844 152.75C105.844 152.05 108.794 151 111.694 149.6C114.694 148.3 117.344 147.95 119.644 148.55C122.044 149.15 123.944 150.35 125.344 152.15C126.844 153.95 127.794 156.05 128.194 158.45C128.594 160.75 128.244 163.05 127.144 165.35C126.144 167.65 124.344 169.5 121.744 170.9C118.244 173 113.894 174.65 108.694 175.85C103.594 177.05 98.4936 177.65 93.3936 177.65ZM153.465 177.35C150.365 177.35 148.215 176.5 147.015 174.8C145.915 173 145.665 170.6 146.265 167.6L149.415 150.65L157.965 152.15H149.565C147.765 152.15 146.165 151.85 144.765 151.25C143.465 150.65 142.465 149.75 141.765 148.55C141.065 147.25 140.715 145.75 140.715 144.05C140.715 141.55 141.465 139.65 142.965 138.35C144.565 136.95 146.765 136.25 149.565 136.25H160.965L151.965 137.9L157.965 107.3L163.815 108.8H153.015C151.115 108.8 149.465 108.5 148.065 107.9C146.765 107.3 145.765 106.4 145.065 105.2C144.365 103.9 144.015 102.45 144.015 100.85C144.015 98.25 144.765 96.3 146.265 95C147.865 93.6 150.115 92.9 153.015 92.9H166.965L160.215 94.55L163.815 76.85C164.315 74.15 165.365 72.15 166.965 70.85C168.665 69.55 170.815 68.9 173.415 68.9C176.215 68.9 178.265 69.75 179.565 71.45C180.965 73.15 181.315 75.55 180.615 78.65L177.765 92.9H190.815L193.965 76.85C194.565 74.15 195.665 72.15 197.265 70.85C198.965 69.55 201.115 68.9 203.715 68.9C206.615 68.9 208.715 69.75 210.015 71.45C211.315 73.15 211.615 75.55 210.915 78.65L207.765 94.55L201.915 92.9H207.765C209.665 92.9 211.265 93.2 212.565 93.8C213.865 94.4 214.865 95.3 215.565 96.5C216.265 97.6 216.615 99.05 216.615 100.85C216.615 103.35 215.815 105.3 214.215 106.7C212.715 108.1 210.565 108.8 207.765 108.8H198.765L205.365 107.3L199.365 137.9L193.365 136.25H204.315C206.315 136.25 207.965 136.55 209.265 137.15C210.565 137.75 211.565 138.65 212.265 139.85C212.965 140.95 213.315 142.35 213.315 144.05C213.315 146.65 212.515 148.65 210.915 150.05C209.415 151.45 207.215 152.15 204.315 152.15H190.365L196.965 150.65L193.215 169.4C192.715 172.2 191.665 174.25 190.065 175.55C188.465 176.75 186.365 177.35 183.765 177.35C180.865 177.35 178.765 176.5 177.465 174.8C176.165 173.1 175.815 170.7 176.415 167.6L179.415 152.15H166.515L163.065 169.4C162.565 172.2 161.515 174.25 159.915 175.55C158.315 176.75 156.165 177.35 153.465 177.35ZM169.515 136.25H182.415L187.815 108.8H174.915L169.515 136.25Z" fill="url(#paint0_linear_2421_12916)"/>
<path opacity="0.5" d="M87 40H31C19.9543 40 11 48.9543 11 60V190C11 201.046 19.9543 210 31 210H87" stroke="url(#paint1_linear_2421_12916)" stroke-width="20" stroke-linecap="round" stroke-linejoin="round"/>
<path opacity="0.5" d="M169 40H225C236.046 40 245 48.9543 245 60V190C245 201.046 236.046 210 225 210H169" stroke="url(#paint2_linear_2421_12916)" stroke-width="20" stroke-linecap="round" stroke-linejoin="round"/>
<defs>
<linearGradient id="paint0_linear_2421_12916" x1="124.575" y1="38.3378" x2="146.418" y2="226.749" gradientUnits="userSpaceOnUse">
<stop stop-color="#3AB99A"/>
<stop offset="1" stop-color="#1B9E7F"/>
</linearGradient>
<linearGradient id="paint1_linear_2421_12916" x1="48.05" y1="51.8899" x2="84.7021" y2="201.238" gradientUnits="userSpaceOnUse">
<stop stop-color="#3AB99A"/>
<stop offset="1" stop-color="#1B9E7F"/>
</linearGradient>
<linearGradient id="paint2_linear_2421_12916" x1="207.95" y1="51.8899" x2="171.298" y2="201.238" gradientUnits="userSpaceOnUse">
<stop stop-color="#3AB99A"/>
<stop offset="1" stop-color="#1B9E7F"/>
</linearGradient>
</defs>
</svg>
