<svg width="64" height="64" viewBox="0 0 64 64" fill="none" xmlns="http://www.w3.org/2000/svg">
<path d="M43.2577 30.9774C46.486 30.9774 49.1031 33.3416 49.1031 36.2579C49.1031 37.7741 48.3957 39.1411 47.2627 40.1042C47.8219 40.7575 47.8041 41.5165 47.8041 42.3207L53 39.1915V50.9259L47.8041 47.7967V48.579C47.8041 49.8752 46.641 50.9259 45.2062 50.9259H33.5155C32.0807 50.9259 30.9175 49.8752 30.9175 48.579V44.7582C28.6472 44.0333 27.0206 42.0774 27.0206 39.7782C27.0206 36.8619 29.6377 34.4978 32.866 34.4978C34.7047 34.4978 36.3452 35.2648 37.4167 36.4638C37.3778 35.5465 37.6084 34.6265 38.0649 33.8311C39.0377 32.1358 40.998 30.9774 43.2577 30.9774Z" fill="url(#paint0_linear_1549_10513)"/>
<path fill-rule="evenodd" clip-rule="evenodd" d="M21.5 13.8125C28.9558 13.8125 35 19.6836 35 26.9259V31.0119C34.3909 30.8812 33.7629 30.8057 33.1233 30.7897C33.3961 30.075 33.5536 29.2327 33.5536 28.3309C33.5536 25.7444 32.2584 23.6476 30.6607 23.6476C29.063 23.6476 27.7679 25.7444 27.7679 28.3309C27.7679 29.6605 28.1101 30.8606 28.6597 31.7131C25.5966 33.1253 23.3093 36.0497 23.3093 39.7782C23.3093 42.8687 24.9198 45.4384 27.2062 47.0219V48.579C27.2062 48.9211 27.2336 49.2518 27.2857 49.5702V51.2794C27.2857 52.314 26.4223 53.1527 25.3571 53.1527C24.292 53.1527 23.4286 52.314 23.4286 51.2794V49.406C23.4286 48.3714 22.5651 47.5327 21.5 47.5327C20.4349 47.5327 19.5714 48.3714 19.5714 49.406V51.2794C19.5714 52.314 18.708 53.1527 17.6429 53.1527C16.5777 53.1527 15.7143 52.314 15.7143 51.2794V49.406C15.7143 48.3714 14.8508 47.5327 13.7857 47.5327C12.7206 47.5327 11.8571 48.3714 11.8571 49.406V51.2794C11.8571 52.314 10.9937 53.1527 9.92857 53.1527C8.86345 53.1527 8 52.314 8 51.2794V26.9259C8 19.6836 14.0442 13.8125 21.5 13.8125ZM21.0179 33.0143C22.6155 33.0143 23.9107 30.9175 23.9107 28.3309C23.9107 25.7444 22.6155 23.6476 21.0179 23.6476C19.4202 23.6476 18.125 25.7444 18.125 28.3309C18.125 30.9175 19.4202 33.0143 21.0179 33.0143Z" fill="url(#paint1_linear_1549_10513)"/>
<path d="M43 15.3667L51 8M51 8L59 15.3667M51 8V26" stroke="url(#paint2_linear_1549_10513)" stroke-width="6" stroke-linecap="round" stroke-linejoin="round"/>
<defs>
<linearGradient id="paint0_linear_1549_10513" x1="5.6693" y1="16.3848" x2="9.38458" y2="53.8755" gradientUnits="userSpaceOnUse">
<stop stop-color="#3AB99A"/>
<stop offset="1" stop-color="#1B9E7F"/>
</linearGradient>
<linearGradient id="paint1_linear_1549_10513" x1="5.6693" y1="16.3848" x2="9.38458" y2="53.8755" gradientUnits="userSpaceOnUse">
<stop stop-color="#3AB99A"/>
<stop offset="1" stop-color="#1B9E7F"/>
</linearGradient>
<linearGradient id="paint2_linear_1549_10513" x1="42.1713" y1="9.11156" x2="44.1135" y2="25.2375" gradientUnits="userSpaceOnUse">
<stop stop-color="#3AB99A"/>
<stop offset="1" stop-color="#1B9E7F"/>
</linearGradient>
</defs>
</svg>
