<svg width="103" height="70" viewBox="0 0 103 70" fill="none" xmlns="http://www.w3.org/2000/svg">
<path d="M37.5133 15.8115C43.7119 12.2328 51.3439 13.8474 54.5602 19.418L54.7877 19.833C57.0328 24.1543 56.0193 29.4715 52.5709 33.251L56.7838 40.5488C58.1683 42.9472 57.2034 46.1161 54.6373 47.7578L31.6764 61.0137C28.9714 62.4154 25.7438 61.6671 24.359 59.2686L23.4967 57.7744L16.9713 69.5117L4.02992 47.0967L17.4577 47.3145C16.5708 45.7784 15.6995 44.3481 16.0524 42.4805C12.9164 41.915 10.1295 40.182 8.43813 37.4414L8.27797 37.1738C5.11205 31.6903 7.40453 24.417 13.3893 20.7773C17.4376 18.3758 22.6253 17.8909 26.7955 20.3008C28.5491 21.3141 30.0061 22.8169 30.943 24.6123C31.6781 21.134 33.9827 17.8499 37.5133 15.8115Z" fill="#E0E0E0"/>
<path fill-rule="evenodd" clip-rule="evenodd" d="M70.9996 0C82.5975 8.37731e-06 91.9995 9.55109 91.9996 21.333V60.9521C91.9996 62.6353 90.6565 64 88.9996 64C87.343 63.9998 85.9996 62.6352 85.9996 60.9521V57.9043C85.9994 56.2214 84.6563 54.8574 82.9996 54.8574C81.3431 54.8576 79.9999 56.2215 79.9996 57.9043V60.9521C79.9996 62.6353 78.6565 64 76.9996 64C75.343 63.9998 73.9996 62.6352 73.9996 60.9521V57.9043C73.9994 56.2214 72.6563 54.8574 70.9996 54.8574C69.3431 54.8576 67.9999 56.2215 67.9996 57.9043V60.9521C67.9996 62.6353 66.6565 64 64.9996 64C63.343 63.9998 61.9996 62.6352 61.9996 60.9521V57.9043C61.9994 56.2214 60.6563 54.8574 58.9996 54.8574C57.3431 54.8576 55.9999 56.2215 55.9996 57.9043V60.9521C55.9996 62.6353 54.6565 64 52.9996 64C51.343 63.9998 49.9996 62.6352 49.9996 60.9521V53.9062L55.8834 50.5098C59.8051 48.2454 61.7859 43.2135 59.3815 39.0488L56.1842 33.5098C59.3356 28.9384 60.0616 22.9462 57.1588 17.918C55.8139 15.5884 53.9124 13.8325 51.7077 12.6611C51.7349 12.6756 51.7625 12.6894 51.7897 12.7041C55.0516 5.22109 62.4252 0.000161185 70.9996 0ZM73.5954 18.5254C69.7183 18.7353 67.5592 20.2048 65.7584 23.1416C65.7527 23.2995 65.7496 23.4588 65.7496 23.6191C65.7497 27.8268 67.7646 31.2379 70.2496 31.2383C72.7349 31.2383 74.7496 27.827 74.7496 23.6191C74.7496 21.6606 74.3126 19.8751 73.5954 18.5254ZM81.903 18.5254C81.186 19.875 80.7496 21.661 80.7496 23.6191C80.7497 27.8268 82.7646 31.2379 85.2496 31.2383C87.7349 31.2383 89.7496 27.827 89.7496 23.6191C89.7496 23.4584 89.7457 23.2989 89.7399 23.1406C87.9391 20.2044 85.7804 18.7349 81.903 18.5254Z" fill="#E0E0E0"/>
</svg>
