<svg width="64" height="64" viewBox="0 0 64 64" fill="none" xmlns="http://www.w3.org/2000/svg">
<path fill-rule="evenodd" clip-rule="evenodd" d="M52.3068 21.4739C52.3068 14.9337 46.4687 9.63184 39.267 9.63184C34.226 9.63184 29.853 12.2297 27.6829 16.0316C26.6647 17.8154 26.1501 19.8785 26.237 21.9358C23.8466 19.2467 20.1871 17.5266 16.0852 17.5266C8.88356 17.5266 3.04546 22.8285 3.04546 29.3687C3.04546 34.5248 6.67402 38.9113 11.7386 40.5369V49.1055C11.7386 52.0123 14.3333 54.3687 17.5341 54.3687H43.6136C46.8144 54.3687 49.4091 52.0123 49.4091 49.1055V47.3511L61 54.3687V28.0529L49.4091 35.0704C49.4091 35.0165 49.4091 34.9627 49.4092 34.909C49.4103 33.1654 49.4114 31.5211 48.2014 30.0997C50.7287 27.9399 52.3068 24.8743 52.3068 21.4739ZM42.9861 30.7403L30.4059 24.9744C30.1414 24.8531 29.8371 24.8531 29.5726 24.9744L16.9924 30.7403L16.9924 30.7404V45.3618L29.9892 51.3187L42.9861 45.3618V44.722V44.72V30.7404V30.7403ZM18.617 33.4483L27.8231 37.2391V48.0689L18.617 43.7366V33.4483ZM20.2416 30.7404L29.9893 26.4081L39.7369 30.7404L29.9893 34.5312L20.2416 30.7404Z" fill="url(#paint0_linear_1632_10110)"/>
<defs>
<linearGradient id="paint0_linear_1632_10110" x1="31.2983" y1="12.7608" x2="34.8022" y2="54.1333" gradientUnits="userSpaceOnUse">
<stop stop-color="#3AB99A"/>
<stop offset="1" stop-color="#1B9E7F"/>
</linearGradient>
</defs>
</svg>
