<svg width="64" height="64" viewBox="0 0 64 64" fill="none" xmlns="http://www.w3.org/2000/svg">
<path fill-rule="evenodd" clip-rule="evenodd" d="M17.9481 27H46.0519C47.7149 27 50 28.1124 50 30.5V33.5C50 35.8876 47.7149 37 46.0519 37H17.9481C16.2851 37 14 35.8876 14 33.5V30.5C14 28.1124 16.2851 27 17.9481 27ZM17.9481 29C16.8722 29 16 29.6716 16 30.5V33.5C16 34.3284 16.8722 35 17.9481 35H46.0519C47.1278 35 48 34.3284 48 33.5V30.5C48 29.6716 47.1278 29 46.0519 29H17.9481Z" fill="url(#paint0_linear_628_3588)"/>
<path fill-rule="evenodd" clip-rule="evenodd" d="M23.2639 44H40.7356C41.6788 44 42.6097 44.2842 43.3498 44.8393C44.0906 45.3949 44.7356 46.3151 44.7356 47.5V50.5C44.7356 51.6849 44.0906 52.6051 43.3498 53.1607C42.6097 53.7158 41.6788 54 40.7356 54H23.2639C22.3207 54 21.3899 53.7158 20.6497 53.1607C19.9089 52.6051 19.2639 51.6849 19.2639 50.5V47.5C19.2639 46.3151 19.9089 45.3949 20.6497 44.8393C21.3899 44.2842 22.3207 44 23.2639 44ZM23.2639 46C22.1593 46 21.2639 46.6716 21.2639 47.5V50.5C21.2639 51.3284 22.1593 52 23.2639 52H40.7356C41.8402 52 42.7356 51.3284 42.7356 50.5V47.5C42.7356 46.6716 41.8402 46 40.7356 46H23.2639Z" fill="url(#paint1_linear_628_3588)"/>
<path d="M7 14C7 12.8954 7.89543 12 9 12H55C56.1046 12 57 12.8954 57 14V18C57 19.1046 56.1046 20 55 20H9C7.89543 20 7 19.1046 7 18V14Z" fill="url(#paint2_linear_628_3588)"/>
<defs>
<linearGradient id="paint0_linear_628_3588" x1="31.55" y1="27.6994" x2="31.8336" y2="37.0051" gradientUnits="userSpaceOnUse">
<stop stop-color="#3AB99A"/>
<stop offset="1" stop-color="#1B9E7F"/>
</linearGradient>
<linearGradient id="paint1_linear_628_3588" x1="31.6814" y1="44.6994" x2="32.0818" y2="53.9965" gradientUnits="userSpaceOnUse">
<stop stop-color="#3AB99A"/>
<stop offset="1" stop-color="#1B9E7F"/>
</linearGradient>
<linearGradient id="paint2_linear_628_3588" x1="31.375" y1="12.5595" x2="31.5058" y2="20.0087" gradientUnits="userSpaceOnUse">
<stop stop-color="#3AB99A"/>
<stop offset="1" stop-color="#1B9E7F"/>
</linearGradient>
</defs>
</svg>
