<svg width="16" height="16" viewBox="0 0 16 16" fill="none" xmlns="http://www.w3.org/2000/svg">
<path d="M2.34314 9.41419C2.47097 9.28637 2.60746 9.17249 2.75073 9.07255C2.79311 9.44347 2.87918 9.81028 3.00882 10.1648C2.26988 10.9487 2.28341 12.1829 3.05025 12.9497C3.81709 13.7166 5.05114 13.7299 5.835 12.991C6.18953 13.1206 6.55633 13.2067 6.92725 13.2491C6.82731 13.3924 6.71362 13.529 6.58578 13.6568C5.41421 14.8284 3.51472 14.8284 2.34314 13.6568C1.17157 12.4853 1.17157 10.5858 2.34314 9.41419Z" fill="url(#paint0_linear_2705_15613)"/>
<path d="M4.80196 5.8954C4.81819 6.35908 4.89212 6.82116 5.02501 7.26957C4.49097 8.30447 4.6576 9.60733 5.52512 10.4749C6.39263 11.3424 7.69535 11.5088 8.73024 10.9748C9.17871 11.1077 9.64082 11.1818 10.1046 11.198C8.63883 12.6461 6.27701 12.641 4.81802 11.182C3.35902 9.72297 3.35387 7.36115 4.80196 5.8954Z" fill="url(#paint1_linear_2705_15613)"/>
<path d="M7.29289 8.70709C5.53553 6.94973 5.53553 4.10048 7.29289 2.34313C9.05025 0.585766 11.8995 0.585766 13.6569 2.34313C15.4142 4.10048 15.4142 6.94973 13.6569 8.70709C11.8995 10.4644 9.05025 10.4644 7.29289 8.70709Z" fill="url(#paint2_linear_2705_15613)"/>
<defs>
<linearGradient id="paint0_linear_2705_15613" x1="5.12169" y1="5.40452" x2="11.3912" y2="10.9452" gradientUnits="userSpaceOnUse">
<stop stop-color="#3AB99A"/>
<stop offset="1" stop-color="#1B9E7F"/>
</linearGradient>
<linearGradient id="paint1_linear_2705_15613" x1="5.12169" y1="5.40452" x2="11.3912" y2="10.9452" gradientUnits="userSpaceOnUse">
<stop stop-color="#3AB99A"/>
<stop offset="1" stop-color="#1B9E7F"/>
</linearGradient>
<linearGradient id="paint2_linear_2705_15613" x1="5.12169" y1="5.40452" x2="11.3912" y2="10.9452" gradientUnits="userSpaceOnUse">
<stop stop-color="#3AB99A"/>
<stop offset="1" stop-color="#1B9E7F"/>
</linearGradient>
</defs>
</svg>
