<svg width="64" height="64" viewBox="0 0 64 64" fill="none" xmlns="http://www.w3.org/2000/svg">
    <path fill-rule="evenodd" clip-rule="evenodd" d="M31.2514 0C28.4929 0 26.2566 2.23627 26.2566 4.99484V5.35758C26.2566 7.44022 24.794 9.21962 22.871 10.0192C20.9477 10.819 18.696 10.5738 17.2232 9.10089L16.9663 8.84404C15.0155 6.89321 11.8525 6.89321 9.90172 8.84404L8.84383 9.90193C6.8929 11.8529 6.8929 15.0159 8.84383 16.9669L9.10097 17.224C10.5737 18.6967 10.8189 20.9481 10.0193 22.8713C9.21982 24.7943 7.44049 26.2568 5.35793 26.2568H4.99492C2.2363 26.2568 0 28.4931 0 31.2518V32.7488C0 35.5076 2.23643 37.744 4.9952 37.744H5.35855C7.44095 37.744 9.22015 39.2064 10.0197 41.1292C10.8193 43.0523 10.5741 45.3037 9.10143 46.7764L8.8441 47.0337C6.89311 48.9847 6.89311 52.1479 8.8441 54.0989L9.90149 55.1563C11.8525 57.1073 15.0158 57.1073 16.9668 55.1563L17.2243 54.8989C18.6969 53.4262 20.9482 53.181 22.8713 53.9806C24.7942 54.7801 26.2566 56.5593 26.2566 58.6417V59.005C26.2566 61.7636 28.493 64 31.2516 64H32.7488C35.5074 64 37.7438 61.7637 37.7438 59.005V58.6418C37.7438 56.5593 39.2062 54.7801 41.1291 53.9806C43.0522 53.181 45.3035 53.4262 46.7762 54.8989L47.0335 55.1562C48.9845 57.1072 52.1477 57.1072 54.0987 55.1562L55.1563 54.0987C57.1072 52.1477 57.1072 48.9846 55.1563 47.0337L54.8992 46.7766C53.4264 45.3038 53.1812 43.0522 53.9809 41.129C54.7805 39.206 56.5598 37.7434 58.6425 37.7434H59.0052C61.7638 37.7434 64 35.5071 64 32.7486V31.251C64 28.4925 61.7638 26.2562 59.0052 26.2562H58.6422C56.5597 26.2562 54.7805 24.7937 53.9809 22.8708C53.1813 20.9477 53.4265 18.6963 54.8992 17.2236L55.1564 16.9664C57.1074 15.0154 57.1074 11.8523 55.1564 9.90141L54.0987 8.84371C52.1478 6.89278 48.9847 6.89278 47.0338 8.8437L46.7767 9.10082C45.3039 10.5736 43.0525 10.8188 41.1293 10.0191C39.2063 9.21959 37.7438 7.44027 37.7438 5.35773V4.99483C37.7438 2.23626 35.5075 0 32.749 0H31.2514ZM36.2 25.6667C36.2 19.7756 31.2304 15 25.1 15C18.9696 15 14 19.7756 14 25.6667V45.4762C14 46.3178 14.7099 47 15.5857 47C16.4615 47 17.1714 46.3178 17.1714 45.4762V43.9524C17.1714 43.1108 17.8814 42.4286 18.7571 42.4286C19.6329 42.4286 20.3429 43.1108 20.3429 43.9524V45.4762C20.3429 46.3178 21.0528 47 21.9286 47C22.8043 47 23.5143 46.3178 23.5143 45.4762V43.9524C23.5143 43.1108 24.2242 42.4286 25.1 42.4286C25.9758 42.4286 26.6857 43.1108 26.6857 43.9524V45.4762C26.6857 46.3178 27.3957 47 28.2714 47C29.1472 47 29.8571 46.3178 29.8571 45.4762V44.086C29.8143 43.8269 29.7918 43.5579 29.7918 43.2797V42.0131C27.9119 40.7251 26.5876 38.6348 26.5876 36.121C26.5876 33.0881 28.4683 30.7093 30.9868 29.5607C30.5349 28.8672 30.2536 27.891 30.2536 26.8095C30.2536 24.7056 31.3185 23 32.6321 23C33.9458 23 35.0107 24.7056 35.0107 26.8095C35.0107 27.5431 34.8813 28.2282 34.6569 28.8095C35.1828 28.8225 35.6992 28.884 36.2 28.9902V25.6667ZM27.0821 26.8095C27.0821 28.9135 26.0172 30.619 24.7036 30.619C23.3899 30.619 22.325 28.9135 22.325 26.8095C22.325 24.7056 23.3899 23 24.7036 23C26.0172 23 27.0821 24.7056 27.0821 26.8095ZM47.7959 33.2575C47.7959 30.8853 45.6441 28.9623 42.9897 28.9623C41.1317 28.9623 39.5199 29.9045 38.72 31.2835C38.3447 31.9305 38.1551 32.6788 38.1871 33.425C37.306 32.4496 35.9572 31.8257 34.4454 31.8257C31.791 31.8257 29.6392 33.7488 29.6392 36.121C29.6392 37.9911 30.9766 39.5821 32.8433 40.1718V43.2797C32.8433 44.334 33.7997 45.1887 34.9794 45.1887H44.5918C45.7715 45.1887 46.7278 44.334 46.7278 43.2797V42.6434L51 45.1887V35.6437L46.7278 38.189L46.7279 38.1305C46.7283 37.4981 46.7287 36.9017 46.2827 36.3861C47.2142 35.6027 47.7959 34.4908 47.7959 33.2575Z" fill="url(#paint0_linear_1719_10982)"/>
    <defs>
        <linearGradient id="paint0_linear_1719_10982" x1="31.2" y1="4.47619" x2="37.6625" y2="63.3787" gradientUnits="userSpaceOnUse">
            <stop stop-color="#3AB99A"/>
            <stop offset="1" stop-color="#1B9E7F"/>
        </linearGradient>
    </defs>
</svg>
