<svg width="128" height="128" viewBox="0 0 128 128" fill="none" xmlns="http://www.w3.org/2000/svg">
<path fill-rule="evenodd" clip-rule="evenodd" d="M96 48C96 30.3269 81.6731 16 64 16C46.3269 16 32 30.3269 32 48V107.429C32 109.953 34.0467 112 36.5714 112C39.0962 112 41.1429 109.953 41.1429 107.429V102.857C41.1429 100.332 43.1896 98.2857 45.7143 98.2857C48.239 98.2857 50.2857 100.332 50.2857 102.857V107.429C50.2857 109.953 52.3324 112 54.8571 112C57.3819 112 59.4286 109.953 59.4286 107.429V102.857C59.4286 100.332 61.4753 98.2857 64 98.2857C66.5247 98.2857 68.5714 100.332 68.5714 102.857V107.429C68.5714 109.953 70.6181 112 73.1429 112C75.6676 112 77.7143 109.953 77.7143 107.429V102.857C77.7143 100.332 79.761 98.2857 82.2857 98.2857C84.8104 98.2857 86.8571 100.332 86.8571 102.857V107.429C86.8571 109.953 88.9038 112 91.4286 112C93.9533 112 96 109.953 96 107.429V48ZM60.1143 51.4286C60.1143 57.7404 57.0442 62.8571 53.2571 62.8571C49.47 62.8571 46.4 57.7404 46.4 51.4286C46.4 45.1167 49.47 40 53.2571 40C57.0442 40 60.1143 45.1167 60.1143 51.4286ZM76.1143 62.8571C79.9014 62.8571 82.9715 57.7404 82.9715 51.4286C82.9715 45.1167 79.9014 40 76.1143 40C72.3272 40 69.2572 45.1167 69.2572 51.4286C69.2572 57.7404 72.3272 62.8571 76.1143 62.8571Z" fill="#F5F5F5"/>
<path fill-rule="evenodd" clip-rule="evenodd" d="M105.359 1.44194C107.172 -0.480645 110.11 -0.480645 111.922 1.44194L123.922 14.172C129.359 19.9397 129.359 29.2911 123.922 35.0588L118.485 40.8266C116.673 42.7491 116.673 45.8663 118.485 47.7888L123.922 53.5566C129.359 59.3243 129.359 68.6757 123.922 74.4434L118.485 80.2112C116.673 82.1337 116.673 85.2509 118.485 87.1735L123.922 92.9412C129.359 98.709 129.359 108.06 123.922 113.828L111.922 126.558C110.11 128.481 107.172 128.481 105.359 126.558C103.547 124.635 103.547 121.518 105.359 119.596L117.359 106.866C119.172 104.943 119.172 101.826 117.359 99.9035L111.922 94.1357C106.485 88.368 106.485 79.0166 111.922 73.2489L117.359 67.4811C119.172 65.5586 119.172 62.4414 117.359 60.5189L111.922 54.7511C106.485 48.9834 106.485 39.632 111.922 33.8643L117.359 28.0965C119.172 26.1739 119.172 23.0568 117.359 21.1342L105.359 8.40422C103.547 6.48164 103.547 3.36452 105.359 1.44194Z" fill="#F5F5F5"/>
<path fill-rule="evenodd" clip-rule="evenodd" d="M22.6408 1.44194C20.8284 -0.480645 17.8901 -0.480645 16.0777 1.44194L4.07773 14.172C-1.35925 19.9397 -1.35924 29.2911 4.07774 35.0588L9.51472 40.8266C11.327 42.7491 11.327 45.8663 9.51472 47.7888L4.07773 53.5566C-1.35925 59.3243 -1.35924 68.6757 4.07774 74.4434L9.51472 80.2112C11.327 82.1337 11.327 85.2509 9.51472 87.1735L4.07773 92.9412C-1.35925 98.709 -1.35924 108.06 4.07774 113.828L16.0777 126.558C17.8901 128.481 20.8284 128.481 22.6408 126.558C24.4531 124.635 24.4531 121.518 22.6408 119.596L10.6408 106.866C8.82842 104.943 8.82843 101.826 10.6408 99.9035L16.0777 94.1357C21.5147 88.368 21.5147 79.0166 16.0777 73.2489L10.6408 67.4811C8.82842 65.5586 8.82843 62.4414 10.6408 60.5189L16.0777 54.7511C21.5147 48.9834 21.5147 39.632 16.0777 33.8643L10.6408 28.0965C8.82842 26.1739 8.82843 23.0568 10.6408 21.1342L22.6408 8.40422C24.4531 6.48164 24.4531 3.36452 22.6408 1.44194Z" fill="#F5F5F5"/>
</svg>
