<svg width="16" height="16" viewBox="0 0 16 16" fill="none" xmlns="http://www.w3.org/2000/svg">
<path d="M13 2L14.2929 3.29289C14.6834 3.68342 14.6834 4.31658 14.2929 4.70711L13.7071 5.29289C13.3166 5.68342 13.3166 6.31658 13.7071 6.70711L14.2929 7.29289C14.6834 7.68342 14.6834 8.31658 14.2929 8.70711L13.7071 9.29289C13.3166 9.68342 13.3166 10.3166 13.7071 10.7071L14.2929 11.2929C14.6834 11.6834 14.6834 12.3166 14.2929 12.7071L13 14" stroke="#FC7F7F" stroke-width="1.5" stroke-linecap="round"/>
<path d="M3 2L1.70711 3.29289C1.31658 3.68342 1.31658 4.31658 1.70711 4.70711L2.29289 5.29289C2.68342 5.68342 2.68342 6.31658 2.29289 6.70711L1.70711 7.29289C1.31658 7.68342 1.31658 8.31658 1.70711 8.70711L2.29289 9.29289C2.68342 9.68342 2.68342 10.3166 2.29289 10.7071L1.70711 11.2929C1.31658 11.6834 1.31658 12.3166 1.70711 12.7071L3 14" stroke="#FC7F7F" stroke-width="1.5" stroke-linecap="round"/>
<path fill-rule="evenodd" clip-rule="evenodd" d="M12 6C12 3.79086 10.2091 2 8 2C5.79086 2 4 3.79086 4 6V13.4286C4 13.7442 4.25584 14 4.57143 14C4.88702 14 5.14286 13.7442 5.14286 13.4286V12.8571C5.14286 12.5416 5.39869 12.2857 5.71429 12.2857C6.02988 12.2857 6.28571 12.5416 6.28571 12.8571V13.4286C6.28571 13.7442 6.54155 14 6.85714 14C7.17273 14 7.42857 13.7442 7.42857 13.4286V12.8571C7.42857 12.5416 7.68441 12.2857 8 12.2857C8.31559 12.2857 8.57143 12.5416 8.57143 12.8571V13.4286C8.57143 13.7442 8.82727 14 9.14286 14C9.45845 14 9.71429 13.7442 9.71429 13.4286V12.8571C9.71429 12.5416 9.97012 12.2857 10.2857 12.2857C10.6013 12.2857 10.8571 12.5416 10.8571 12.8571V13.4286C10.8571 13.7442 11.113 14 11.4286 14C11.7442 14 12 13.7442 12 13.4286V6ZM7.51428 6.42857C7.51428 7.21755 7.13053 7.85714 6.65714 7.85714C6.18375 7.85714 5.8 7.21755 5.8 6.42857C5.8 5.63959 6.18375 5 6.65714 5C7.13053 5 7.51428 5.63959 7.51428 6.42857ZM9.51429 7.85714C9.98768 7.85714 10.3714 7.21755 10.3714 6.42857C10.3714 5.63959 9.98768 5 9.51429 5C9.0409 5 8.65715 5.63959 8.65715 6.42857C8.65715 7.21755 9.0409 7.85714 9.51429 7.85714Z" fill="#FC7F7F"/>
</svg>
