<svg width="16" height="16" viewBox="0 0 16 16" fill="none" xmlns="http://www.w3.org/2000/svg">
<path fill-rule="evenodd" clip-rule="evenodd" d="M12 6C12 3.79086 10.2091 2 8 2C5.79086 2 4 3.79086 4 6V13.4286C4 13.7442 4.25584 14 4.57143 14C4.88702 14 5.14286 13.7442 5.14286 13.4286V12.8571C5.14286 12.5416 5.39869 12.2857 5.71429 12.2857C6.02988 12.2857 6.28571 12.5416 6.28571 12.8571V13.4286C6.28571 13.7442 6.54155 14 6.85714 14C7.17273 14 7.42857 13.7442 7.42857 13.4286V12.8571C7.42857 12.5416 7.68441 12.2857 8 12.2857C8.31559 12.2857 8.57143 12.5416 8.57143 12.8571V13.4286C8.57143 13.7442 8.82727 14 9.14286 14C9.45845 14 9.71429 13.7442 9.71429 13.4286V12.8571C9.71429 12.5416 9.97012 12.2857 10.2857 12.2857C10.6013 12.2857 10.8571 12.5416 10.8571 12.8571V13.4286C10.8571 13.7442 11.113 14 11.4286 14C11.7442 14 12 13.7442 12 13.4286V6ZM7.51428 6.42857C7.51428 7.21755 7.13053 7.85714 6.65714 7.85714C6.18375 7.85714 5.8 7.21755 5.8 6.42857C5.8 5.63959 6.18375 5 6.65714 5C7.13053 5 7.51428 5.63959 7.51428 6.42857ZM9.51429 7.85714C9.98768 7.85714 10.3714 7.21755 10.3714 6.42857C10.3714 5.63959 9.98768 5 9.51429 5C9.0409 5 8.65715 5.63959 8.65715 6.42857C8.65715 7.21755 9.0409 7.85714 9.51429 7.85714Z" fill="#F5F5F5"/>
<path fill-rule="evenodd" clip-rule="evenodd" d="M12.4697 1.46967C12.7626 1.17678 13.2374 1.17678 13.5303 1.46967L14.8232 2.76256C15.5066 3.44598 15.5066 4.55402 14.8232 5.23744L14.2374 5.82322C14.1398 5.92085 14.1398 6.07914 14.2374 6.17678L14.8232 6.76256C15.5066 7.44598 15.5066 8.55402 14.8232 9.23744L14.2374 9.82322C14.1398 9.92085 14.1398 10.0791 14.2374 10.1768L14.8232 10.7626C15.5066 11.446 15.5066 12.554 14.8232 13.2374L13.5303 14.5303C13.2374 14.8232 12.7626 14.8232 12.4697 14.5303C12.1768 14.2374 12.1768 13.7626 12.4697 13.4697L13.7626 12.1768C13.8602 12.0791 13.8602 11.9209 13.7626 11.8232L13.1768 11.2374C12.4934 10.554 12.4934 9.44598 13.1768 8.76256L13.7626 8.17678C13.8602 8.07914 13.8602 7.92085 13.7626 7.82322L13.1768 7.23744C12.4934 6.55402 12.4934 5.44598 13.1768 4.76256L13.7626 4.17678C13.8602 4.07915 13.8602 3.92085 13.7626 3.82322L12.4697 2.53033C12.1768 2.23744 12.1768 1.76256 12.4697 1.46967Z" fill="#F5F5F5"/>
<path fill-rule="evenodd" clip-rule="evenodd" d="M3.53033 1.46967C3.23744 1.17678 2.76256 1.17678 2.46967 1.46967L1.17678 2.76256C0.493358 3.44598 0.49336 4.55402 1.17678 5.23744L1.76256 5.82322C1.86019 5.92085 1.86019 6.07914 1.76256 6.17678L1.17678 6.76256C0.493358 7.44598 0.49336 8.55402 1.17678 9.23744L1.76256 9.82322C1.86019 9.92085 1.86019 10.0791 1.76256 10.1768L1.17678 10.7626C0.493358 11.446 0.49336 12.554 1.17678 13.2374L2.46967 14.5303C2.76256 14.8232 3.23744 14.8232 3.53033 14.5303C3.82322 14.2374 3.82322 13.7626 3.53033 13.4697L2.23744 12.1768C2.13981 12.0791 2.13981 11.9209 2.23744 11.8232L2.82322 11.2374C3.50664 10.554 3.50664 9.44598 2.82322 8.76256L2.23744 8.17678C2.13981 8.07914 2.13981 7.92085 2.23744 7.82322L2.82322 7.23744C3.50664 6.55402 3.50664 5.44598 2.82322 4.76256L2.23744 4.17678C2.13981 4.07915 2.13981 3.92085 2.23744 3.82322L3.53033 2.53033C3.82322 2.23744 3.82322 1.76256 3.53033 1.46967Z" fill="#F5F5F5"/>
</svg>
