<svg width="16" height="16" viewBox="0 0 16 16" fill="none" xmlns="http://www.w3.org/2000/svg">
<g clip-path="url(#clip0_2715_14576)">
<path d="M4.0498 14.5837C4.04984 14.6872 4.06271 14.7906 4.08496 14.8914C3.99471 15.0322 3.84509 15.1248 3.6748 15.1248C3.3989 15.1246 3.17505 14.8826 3.1748 14.5837V11.3054C3.47987 11.2227 3.77475 11.0948 4.0498 10.9216V14.5837ZM6.6748 14.5837C6.67484 14.6872 6.68771 14.7906 6.70996 14.8914C6.61971 15.0322 6.47009 15.1248 6.2998 15.1248C6.0239 15.1246 5.80005 14.8826 5.7998 14.5837V9.52515C6.1051 9.42211 6.39854 9.27794 6.6748 9.09546V14.5837ZM11.9248 3.74976C13.8578 3.74976 15.4248 5.44767 15.4248 7.54175V14.5837C15.4246 14.8827 15.2008 15.1248 14.9248 15.1248C14.6489 15.1246 14.425 14.8826 14.4248 14.5837V14.0417C14.4248 13.7426 14.2009 13.4998 13.9248 13.4998C13.6488 13.4999 13.4248 13.7427 13.4248 14.0417V14.5837C13.4246 14.8827 13.2008 15.1248 12.9248 15.1248C12.6489 15.1246 12.425 14.8826 12.4248 14.5837V14.0417C12.4248 13.7426 12.2009 13.4998 11.9248 13.4998C11.6488 13.4999 11.4248 13.7427 11.4248 14.0417V14.5837C11.4246 14.8827 11.2008 15.1248 10.9248 15.1248C10.6489 15.1246 10.425 14.8826 10.4248 14.5837V14.0417C10.4248 13.7426 10.2009 13.4998 9.9248 13.4998C9.64875 13.4999 9.4248 13.7427 9.4248 14.0417V14.5837C9.4246 14.8827 9.20082 15.1248 8.9248 15.1248C8.64888 15.1246 8.42501 14.8826 8.4248 14.5837V7.73315C8.97003 7.5202 9.48245 7.197 9.92285 6.75659C10.7344 5.94507 11.1586 4.8938 11.1992 3.83081C11.4333 3.77736 11.6761 3.74977 11.9248 3.74976ZM3.34961 9.26245C3.57741 9.34573 3.81232 9.40301 4.0498 9.43823V9.61011C4.0065 9.66205 3.96083 9.71275 3.91211 9.76147C3.69443 9.97915 3.44289 10.1419 3.1748 10.2517V9.4021C3.23531 9.36006 3.29448 9.31442 3.34961 9.26245ZM11.7998 6.59351C11.3857 6.5937 11.0498 7.20023 11.0498 7.948C11.0498 8.69573 11.3857 9.3023 11.7998 9.30249C12.214 9.30249 12.5498 8.69585 12.5498 7.948C12.5498 7.20011 12.214 6.59351 11.7998 6.59351ZM14.2998 6.59351C13.8857 6.59369 13.5498 7.20023 13.5498 7.948C13.5498 8.69573 13.8857 9.3023 14.2998 9.30249C14.714 9.30249 15.0498 8.69585 15.0498 7.948C15.0498 7.20011 14.714 6.59351 14.2998 6.59351ZM7.75293 8.8728C7.74221 8.85213 7.7307 8.83119 7.7207 8.80933L7.67773 8.70483C7.7 8.76434 7.72584 8.82054 7.75293 8.8728ZM3.17871 7.4314C3.43413 7.6672 3.7334 7.8269 4.0498 7.90991V8.67847C3.74544 8.62085 3.45035 8.51095 3.1748 8.35229V7.54175C3.17481 7.50494 3.17775 7.46795 3.17871 7.4314ZM5.7998 7.82202C6.04744 7.8769 6.29946 7.9089 6.55176 7.91772C6.3261 8.14064 6.07044 8.315 5.7998 8.44604V7.82202ZM8.30566 3.90601C7.4208 4.67002 6.829 5.79051 6.70117 7.03394C6.41432 7.02312 6.12867 6.97689 5.85156 6.89331C6.07879 5.46499 7.0434 4.31061 8.30566 3.90601ZM10.1475 4.27515C10.0281 4.925 9.71835 5.54702 9.21582 6.04956C9.00887 6.25651 8.78103 6.43006 8.54004 6.57202C8.77742 5.59691 9.36497 4.77597 10.1475 4.27515ZM5.68066 3.90601C5.06937 4.43381 4.59743 5.13143 4.32227 5.92261C4.14211 5.72309 3.99029 5.50711 3.86621 5.28003C4.31258 4.63058 4.94623 4.14142 5.68066 3.90601Z" fill="#F5F5F5"/>
<path d="M0.730235 6.5795C0.826106 6.48363 0.928475 6.39822 1.03593 6.32327C1.06771 6.60146 1.13226 6.87657 1.22949 7.14246C0.67529 7.73036 0.685437 8.65603 1.26057 9.23116C1.83569 9.80628 2.76123 9.8163 3.34913 9.2621C3.61503 9.35935 3.89012 9.42387 4.16832 9.45567C4.09336 9.56313 4.00809 9.66561 3.91222 9.76149C3.03354 10.6402 1.60892 10.6402 0.730236 9.76149C-0.148444 8.88281 -0.148444 7.45818 0.730235 6.5795Z" fill="#F5F5F5"/>
<path d="M2.57435 3.94041C2.58652 4.28817 2.64197 4.63473 2.74163 4.97104C2.34111 5.74721 2.46608 6.72436 3.11672 7.375C3.76735 8.02563 4.74439 8.15045 5.52056 7.74996C5.85691 7.84965 6.2035 7.9052 6.55131 7.91737C5.452 9.00344 3.68064 8.99958 2.58639 7.90533C1.49214 6.81108 1.48828 5.03972 2.57435 3.94041Z" fill="#F5F5F5"/>
<path d="M4.44255 6.04917C3.12453 4.73116 3.12453 2.59422 4.44255 1.2762C5.76056 -0.0418153 7.8975 -0.0418153 9.21552 1.2762C10.5335 2.59422 10.5335 4.73116 9.21552 6.04917C7.8975 7.36719 5.76057 7.36719 4.44255 6.04917Z" fill="#F5F5F5"/>
</g>
<defs>
<clipPath id="clip0_2715_14576">
<rect width="16" height="16" fill="white"/>
</clipPath>
</defs>
</svg>
