<svg width="830" height="233" viewBox="0 0 830 233" fill="none" xmlns="http://www.w3.org/2000/svg">
<g clip-path="url(#clip0_2747_17353)">
<rect width="830" height="233" fill="#141C21"/>
<path d="M449.021 79.2732C457.629 79.2732 464.608 85.5776 464.608 93.3544C464.608 97.3977 462.722 101.043 459.701 103.611C461.192 105.353 461.144 107.377 461.144 109.522L475 101.177V132.469L461.144 124.125V126.211C461.144 129.667 458.043 132.469 454.216 132.469H423.041C419.215 132.469 416.113 129.667 416.113 126.211V116.022C410.059 114.089 405.722 108.873 405.722 102.742C405.722 94.9651 412.7 88.6607 421.309 88.6607C426.213 88.6607 430.587 90.706 433.445 93.9036C433.341 91.4574 433.956 89.0041 435.173 86.8831C437.767 82.3622 442.995 79.2732 449.021 79.2732Z" fill="#F5F5F5"/>
<path fill-rule="evenodd" clip-rule="evenodd" d="M391 33.5C410.882 33.5 427 49.1562 427 68.4691V79.3649C425.376 79.0165 423.701 78.8151 421.995 78.7724C422.723 76.8667 423.143 74.6206 423.143 72.2158C423.143 65.3183 419.689 59.7268 415.429 59.7268C411.168 59.7268 407.714 65.3183 407.714 72.2158C407.714 75.7612 408.627 78.9617 410.092 81.2349C401.924 85.0007 395.825 92.7993 395.825 102.742C395.825 110.983 400.12 117.836 406.216 122.058V126.211C406.216 127.123 406.289 128.005 406.429 128.854V133.412C406.429 136.171 404.126 138.407 401.286 138.407C398.445 138.407 396.143 136.171 396.143 133.412V128.416C396.143 125.657 393.84 123.42 391 123.42C388.16 123.42 385.857 125.657 385.857 128.416V133.412C385.857 136.171 383.555 138.407 380.714 138.407C377.874 138.407 375.571 136.171 375.571 133.412V128.416C375.571 125.657 373.269 123.42 370.429 123.42C367.588 123.42 365.286 125.657 365.286 128.416V133.412C365.286 136.171 362.983 138.407 360.143 138.407C357.303 138.407 355 136.171 355 133.412V68.4691C355 49.1562 371.118 33.5 391 33.5ZM389.714 84.7047C393.975 84.7047 397.429 79.1132 397.429 72.2158C397.429 65.3183 393.975 59.7268 389.714 59.7268C385.454 59.7268 382 65.3183 382 72.2158C382 79.1132 385.454 84.7047 389.714 84.7047Z" fill="#F5F5F5"/>
<path d="M156.984 197.576C155.107 197.576 153.656 197.064 152.632 196.04C151.608 194.973 151.096 193.501 151.096 191.624V157.832C151.096 155.912 151.608 154.44 152.632 153.416C153.699 152.392 155.171 151.88 157.048 151.88H172.792C177.912 151.88 181.859 153.203 184.632 155.848C187.448 158.451 188.856 162.056 188.856 166.664C188.856 171.272 187.448 174.899 184.632 177.544C181.859 180.147 177.912 181.448 172.792 181.448H162.872V191.624C162.872 193.501 162.381 194.973 161.4 196.04C160.419 197.064 158.947 197.576 156.984 197.576ZM162.872 172.424H170.744C172.963 172.424 174.669 171.955 175.864 171.016C177.059 170.035 177.656 168.584 177.656 166.664C177.656 164.701 177.059 163.251 175.864 162.312C174.669 161.373 172.963 160.904 170.744 160.904H162.872V172.424ZM199.21 197.576C197.418 197.576 196.031 197.085 195.05 196.104C194.069 195.123 193.578 193.693 193.578 191.816V157.064C193.578 155.187 194.069 153.757 195.05 152.776C196.031 151.795 197.418 151.304 199.21 151.304C201.045 151.304 202.453 151.795 203.434 152.776C204.458 153.757 204.97 155.187 204.97 157.064V171.016H203.946C204.97 169.011 206.421 167.475 208.298 166.408C210.218 165.341 212.394 164.808 214.826 164.808C217.343 164.808 219.413 165.299 221.034 166.28C222.655 167.219 223.871 168.712 224.682 170.76C225.493 172.765 225.898 175.304 225.898 178.376V191.816C225.898 193.693 225.407 195.123 224.426 196.104C223.445 197.085 222.037 197.576 220.202 197.576C218.367 197.576 216.959 197.085 215.978 196.104C214.997 195.123 214.506 193.693 214.506 191.816V178.824C214.506 176.904 214.165 175.539 213.482 174.728C212.842 173.917 211.882 173.512 210.602 173.512C208.895 173.512 207.53 174.067 206.506 175.176C205.482 176.243 204.97 177.693 204.97 179.528V191.816C204.97 195.656 203.05 197.576 199.21 197.576ZM243.335 197.704C240.903 197.704 238.748 197.256 236.871 196.36C235.036 195.464 233.585 194.248 232.519 192.712C231.495 191.133 230.983 189.341 230.983 187.336C230.983 185.032 231.58 183.219 232.775 181.896C233.969 180.573 235.889 179.635 238.535 179.08C241.18 178.483 244.7 178.184 249.095 178.184H252.615V183.56H249.095C247.431 183.56 246.044 183.688 244.935 183.944C243.868 184.157 243.079 184.52 242.567 185.032C242.055 185.501 241.799 186.12 241.799 186.888C241.799 187.869 242.14 188.68 242.823 189.32C243.548 189.96 244.572 190.28 245.895 190.28C246.961 190.28 247.9 190.045 248.711 189.576C249.564 189.107 250.247 188.467 250.759 187.656C251.271 186.803 251.527 185.821 251.527 184.712V177.288C251.527 175.752 251.121 174.664 250.311 174.024C249.543 173.384 248.199 173.064 246.279 173.064C245.255 173.064 244.103 173.192 242.823 173.448C241.543 173.661 240.113 174.067 238.535 174.664C237.383 175.091 236.401 175.155 235.591 174.856C234.78 174.557 234.14 174.045 233.671 173.32C233.244 172.595 233.031 171.805 233.031 170.952C233.073 170.099 233.351 169.288 233.863 168.52C234.417 167.752 235.249 167.155 236.359 166.728C238.407 165.96 240.284 165.448 241.991 165.192C243.74 164.936 245.34 164.808 246.791 164.808C250.289 164.808 253.169 165.32 255.431 166.344C257.735 167.325 259.441 168.861 260.551 170.952C261.703 173 262.279 175.645 262.279 178.888V191.816C262.279 193.693 261.831 195.123 260.935 196.104C260.039 197.085 258.737 197.576 257.031 197.576C255.281 197.576 253.937 197.085 252.999 196.104C252.103 195.123 251.655 193.693 251.655 191.816V190.152L252.039 191.048C251.825 192.413 251.335 193.587 250.567 194.568C249.799 195.549 248.796 196.317 247.559 196.872C246.321 197.427 244.913 197.704 243.335 197.704ZM274.398 197.576C272.606 197.576 271.219 197.085 270.238 196.104C269.256 195.123 268.766 193.693 268.766 191.816V170.632C268.766 168.797 269.235 167.389 270.174 166.408C271.155 165.427 272.542 164.936 274.334 164.936C276.126 164.936 277.491 165.427 278.43 166.408C279.368 167.389 279.838 168.797 279.838 170.632V173.64L279.134 171.016C280.158 169.011 281.608 167.475 283.486 166.408C285.406 165.341 287.582 164.808 290.014 164.808C292.531 164.808 294.6 165.299 296.222 166.28C297.843 167.219 299.059 168.712 299.87 170.76C300.68 172.765 301.086 175.304 301.086 178.376V191.816C301.086 193.693 300.595 195.123 299.614 196.104C298.632 197.085 297.224 197.576 295.39 197.576C293.555 197.576 292.147 197.085 291.166 196.104C290.184 195.123 289.694 193.693 289.694 191.816V178.824C289.694 176.904 289.352 175.539 288.67 174.728C288.03 173.917 287.07 173.512 285.79 173.512C284.083 173.512 282.718 174.067 281.694 175.176C280.67 176.243 280.158 177.693 280.158 179.528V191.816C280.158 195.656 278.238 197.576 274.398 197.576ZM324.09 197.704C320.89 197.704 318.245 197.213 316.154 196.232C314.106 195.251 312.57 193.779 311.546 191.816C310.522 189.811 310.01 187.315 310.01 184.328V173.896H307.834C306.469 173.896 305.402 173.533 304.634 172.808C303.909 172.083 303.546 171.037 303.546 169.672C303.546 168.307 303.909 167.283 304.634 166.6C305.402 165.875 306.469 165.512 307.834 165.512H310.01V161.544C310.01 159.667 310.501 158.237 311.482 157.256C312.463 156.275 313.871 155.784 315.706 155.784C317.541 155.784 318.949 156.275 319.93 157.256C320.911 158.237 321.402 159.667 321.402 161.544V165.512H326.65C328.058 165.512 329.125 165.875 329.85 166.6C330.618 167.283 331.002 168.307 331.002 169.672C331.002 171.037 330.618 172.083 329.85 172.808C329.125 173.533 328.058 173.896 326.65 173.896H321.402V183.944C321.402 185.523 321.765 186.696 322.49 187.464C323.258 188.189 324.453 188.552 326.074 188.552C326.671 188.552 327.247 188.488 327.802 188.36C328.357 188.232 328.869 188.168 329.338 188.168C330.021 188.125 330.575 188.339 331.002 188.808C331.429 189.235 331.642 190.237 331.642 191.816C331.642 193.096 331.45 194.184 331.066 195.08C330.682 195.933 329.999 196.552 329.018 196.936C328.421 197.149 327.61 197.32 326.586 197.448C325.562 197.619 324.73 197.704 324.09 197.704ZM350.452 197.704C346.953 197.704 343.902 197.043 341.3 195.72C338.697 194.397 336.67 192.499 335.22 190.024C333.769 187.549 333.044 184.627 333.044 181.256C333.044 178.696 333.449 176.413 334.26 174.408C335.07 172.36 336.244 170.632 337.78 169.224C339.316 167.773 341.15 166.685 343.284 165.96C345.417 165.192 347.806 164.808 350.452 164.808C353.95 164.808 357.001 165.469 359.604 166.792C362.206 168.115 364.212 170.013 365.62 172.488C367.07 174.92 367.796 177.843 367.796 181.256C367.796 183.773 367.39 186.056 366.58 188.104C365.769 190.152 364.596 191.901 363.06 193.352C361.566 194.76 359.732 195.848 357.556 196.616C355.422 197.341 353.054 197.704 350.452 197.704ZM350.452 189.32C351.604 189.32 352.628 189.043 353.524 188.488C354.42 187.891 355.102 187.016 355.572 185.864C356.084 184.669 356.34 183.133 356.34 181.256C356.34 178.397 355.785 176.349 354.676 175.112C353.566 173.832 352.158 173.192 350.452 173.192C349.3 173.192 348.276 173.469 347.38 174.024C346.484 174.579 345.78 175.453 345.268 176.648C344.756 177.8 344.5 179.336 344.5 181.256C344.5 184.072 345.054 186.12 346.164 187.4C347.273 188.68 348.702 189.32 350.452 189.32ZM378.776 197.576C376.984 197.576 375.597 197.085 374.616 196.104C373.634 195.123 373.144 193.693 373.144 191.816V170.632C373.144 168.797 373.613 167.389 374.552 166.408C375.533 165.427 376.92 164.936 378.712 164.936C380.504 164.936 381.869 165.427 382.808 166.408C383.746 167.389 384.216 168.797 384.216 170.632V174.152L383.512 171.016C384.408 169.139 385.73 167.645 387.48 166.536C389.272 165.384 391.384 164.808 393.816 164.808C396.12 164.808 398.082 165.363 399.704 166.472C401.368 167.581 402.562 169.267 403.288 171.528H402.392C403.373 169.437 404.845 167.795 406.808 166.6C408.77 165.405 410.946 164.808 413.336 164.808C415.81 164.808 417.837 165.299 419.416 166.28C420.994 167.219 422.168 168.712 422.936 170.76C423.746 172.765 424.152 175.304 424.152 178.376V191.816C424.152 193.693 423.64 195.123 422.616 196.104C421.634 197.085 420.226 197.576 418.392 197.576C416.6 197.576 415.213 197.085 414.232 196.104C413.25 195.123 412.76 193.693 412.76 191.816V178.696C412.76 176.861 412.482 175.539 411.928 174.728C411.373 173.917 410.456 173.512 409.176 173.512C407.597 173.512 406.381 174.067 405.528 175.176C404.717 176.285 404.312 177.864 404.312 179.912V191.816C404.312 193.693 403.821 195.123 402.84 196.104C401.858 197.085 400.45 197.576 398.616 197.576C396.781 197.576 395.373 197.085 394.392 196.104C393.41 195.123 392.92 193.693 392.92 191.816V178.696C392.92 176.861 392.642 175.539 392.088 174.728C391.533 173.917 390.616 173.512 389.336 173.512C387.8 173.512 386.605 174.067 385.752 175.176C384.941 176.285 384.536 177.864 384.536 179.912V191.816C384.536 195.656 382.616 197.576 378.776 197.576ZM472.63 197.704C467.638 197.704 463.35 196.744 459.766 194.824C456.182 192.904 453.43 190.195 451.51 186.696C449.633 183.197 448.694 179.101 448.694 174.408C448.694 170.909 449.227 167.731 450.294 164.872C451.403 162.013 452.982 159.56 455.03 157.512C457.121 155.464 459.638 153.907 462.582 152.84C465.569 151.731 468.918 151.176 472.63 151.176C474.593 151.176 476.619 151.411 478.71 151.88C480.843 152.307 482.721 152.968 484.342 153.864C485.537 154.504 486.369 155.315 486.838 156.296C487.307 157.277 487.457 158.28 487.286 159.304C487.158 160.328 486.795 161.245 486.198 162.056C485.601 162.867 484.833 163.421 483.894 163.72C482.955 163.976 481.931 163.827 480.822 163.272C479.542 162.675 478.262 162.227 476.982 161.928C475.745 161.587 474.443 161.416 473.078 161.416C470.433 161.416 468.214 161.928 466.422 162.952C464.673 163.933 463.35 165.384 462.454 167.304C461.558 169.224 461.11 171.592 461.11 174.408C461.11 177.224 461.558 179.613 462.454 181.576C463.35 183.496 464.673 184.968 466.422 185.992C468.214 186.973 470.433 187.464 473.078 187.464C474.187 187.464 475.382 187.336 476.662 187.08C477.942 186.781 479.201 186.333 480.438 185.736C481.718 185.181 482.849 185.032 483.83 185.288C484.854 185.544 485.665 186.056 486.262 186.824C486.902 187.592 487.307 188.488 487.478 189.512C487.649 190.493 487.499 191.475 487.03 192.456C486.603 193.437 485.835 194.227 484.726 194.824C483.233 195.72 481.377 196.424 479.158 196.936C476.982 197.448 474.806 197.704 472.63 197.704ZM502.897 197.704C500.465 197.704 498.31 197.256 496.433 196.36C494.598 195.464 493.148 194.248 492.081 192.712C491.057 191.133 490.545 189.341 490.545 187.336C490.545 185.032 491.142 183.219 492.337 181.896C493.532 180.573 495.452 179.635 498.097 179.08C500.742 178.483 504.262 178.184 508.657 178.184H512.177V183.56H508.657C506.993 183.56 505.606 183.688 504.497 183.944C503.43 184.157 502.641 184.52 502.129 185.032C501.617 185.501 501.361 186.12 501.361 186.888C501.361 187.869 501.702 188.68 502.385 189.32C503.11 189.96 504.134 190.28 505.457 190.28C506.524 190.28 507.462 190.045 508.273 189.576C509.126 189.107 509.809 188.467 510.321 187.656C510.833 186.803 511.089 185.821 511.089 184.712V177.288C511.089 175.752 510.684 174.664 509.873 174.024C509.105 173.384 507.761 173.064 505.841 173.064C504.817 173.064 503.665 173.192 502.385 173.448C501.105 173.661 499.676 174.067 498.097 174.664C496.945 175.091 495.964 175.155 495.153 174.856C494.342 174.557 493.702 174.045 493.233 173.32C492.806 172.595 492.593 171.805 492.593 170.952C492.636 170.099 492.913 169.288 493.425 168.52C493.98 167.752 494.812 167.155 495.921 166.728C497.969 165.96 499.846 165.448 501.553 165.192C503.302 164.936 504.902 164.808 506.353 164.808C509.852 164.808 512.732 165.32 514.993 166.344C517.297 167.325 519.004 168.861 520.113 170.952C521.265 173 521.841 175.645 521.841 178.888V191.816C521.841 193.693 521.393 195.123 520.497 196.104C519.601 197.085 518.3 197.576 516.593 197.576C514.844 197.576 513.5 197.085 512.561 196.104C511.665 195.123 511.217 193.693 511.217 191.816V190.152L511.601 191.048C511.388 192.413 510.897 193.587 510.129 194.568C509.361 195.549 508.358 196.317 507.121 196.872C505.884 197.427 504.476 197.704 502.897 197.704ZM534.088 197.576C532.296 197.576 530.909 197.085 529.928 196.104C528.947 195.123 528.456 193.693 528.456 191.816V170.632C528.456 168.797 528.925 167.389 529.864 166.408C530.845 165.427 532.232 164.936 534.024 164.936C535.816 164.936 537.181 165.427 538.12 166.408C539.059 167.389 539.528 168.797 539.528 170.632V174.152L538.824 171.016C539.72 169.139 541.043 167.645 542.792 166.536C544.584 165.384 546.696 164.808 549.128 164.808C551.432 164.808 553.395 165.363 555.016 166.472C556.68 167.581 557.875 169.267 558.6 171.528H557.704C558.685 169.437 560.157 167.795 562.12 166.6C564.083 165.405 566.259 164.808 568.648 164.808C571.123 164.808 573.149 165.299 574.728 166.28C576.307 167.219 577.48 168.712 578.248 170.76C579.059 172.765 579.464 175.304 579.464 178.376V191.816C579.464 193.693 578.952 195.123 577.928 196.104C576.947 197.085 575.539 197.576 573.704 197.576C571.912 197.576 570.525 197.085 569.544 196.104C568.563 195.123 568.072 193.693 568.072 191.816V178.696C568.072 176.861 567.795 175.539 567.24 174.728C566.685 173.917 565.768 173.512 564.488 173.512C562.909 173.512 561.693 174.067 560.84 175.176C560.029 176.285 559.624 177.864 559.624 179.912V191.816C559.624 193.693 559.133 195.123 558.152 196.104C557.171 197.085 555.763 197.576 553.928 197.576C552.093 197.576 550.685 197.085 549.704 196.104C548.723 195.123 548.232 193.693 548.232 191.816V178.696C548.232 176.861 547.955 175.539 547.4 174.728C546.845 173.917 545.928 173.512 544.648 173.512C543.112 173.512 541.917 174.067 541.064 175.176C540.253 176.285 539.848 177.864 539.848 179.912V191.816C539.848 195.656 537.928 197.576 534.088 197.576ZM603.23 197.704C599.39 197.704 596.062 197.043 593.246 195.72C590.473 194.355 588.339 192.435 586.846 189.96C585.353 187.485 584.606 184.563 584.606 181.192C584.606 177.949 585.31 175.112 586.718 172.68C588.169 170.205 590.131 168.285 592.606 166.92C595.123 165.512 597.982 164.808 601.182 164.808C603.529 164.808 605.662 165.192 607.582 165.96C609.502 166.685 611.145 167.773 612.51 169.224C613.875 170.632 614.899 172.339 615.582 174.344C616.307 176.349 616.67 178.589 616.67 181.064C616.67 181.917 616.435 182.557 615.966 182.984C615.497 183.368 614.75 183.56 613.726 183.56H594.142V178.184H608.35L607.326 179.016C607.326 177.437 607.113 176.157 606.686 175.176C606.259 174.195 605.619 173.448 604.766 172.936C603.955 172.424 602.931 172.168 601.694 172.168C600.371 172.168 599.219 172.488 598.238 173.128C597.299 173.725 596.574 174.621 596.062 175.816C595.55 177.011 595.294 178.504 595.294 180.296V180.872C595.294 183.901 595.955 186.077 597.278 187.4C598.643 188.68 600.734 189.32 603.55 189.32C604.489 189.32 605.555 189.213 606.75 189C607.987 188.744 609.161 188.403 610.27 187.976C611.379 187.549 612.339 187.485 613.15 187.784C613.961 188.04 614.579 188.509 615.006 189.192C615.475 189.832 615.731 190.579 615.774 191.432C615.817 192.243 615.625 193.053 615.198 193.864C614.771 194.632 614.067 195.229 613.086 195.656C611.593 196.339 609.993 196.851 608.286 197.192C606.622 197.533 604.937 197.704 603.23 197.704ZM627.402 197.576C625.525 197.576 624.074 197.085 623.05 196.104C622.069 195.123 621.578 193.693 621.578 191.816V170.632C621.578 168.797 622.047 167.389 622.986 166.408C623.967 165.427 625.354 164.936 627.146 164.936C628.938 164.936 630.303 165.427 631.242 166.408C632.181 167.389 632.65 168.797 632.65 170.632V173.256H632.01C632.437 170.696 633.525 168.669 635.274 167.176C637.066 165.683 639.285 164.893 641.93 164.808C643.167 164.765 644.085 165.085 644.682 165.768C645.322 166.408 645.663 167.624 645.706 169.416C645.706 170.952 645.386 172.168 644.746 173.064C644.106 173.96 642.89 174.493 641.098 174.664L639.626 174.792C637.365 175.005 635.722 175.645 634.698 176.712C633.674 177.736 633.162 179.272 633.162 181.32V191.816C633.162 193.693 632.671 195.123 631.69 196.104C630.709 197.085 629.279 197.576 627.402 197.576ZM659.96 197.704C657.528 197.704 655.373 197.256 653.496 196.36C651.661 195.464 650.21 194.248 649.144 192.712C648.12 191.133 647.608 189.341 647.608 187.336C647.608 185.032 648.205 183.219 649.4 181.896C650.594 180.573 652.514 179.635 655.16 179.08C657.805 178.483 661.325 178.184 665.72 178.184H669.24V183.56H665.72C664.056 183.56 662.669 183.688 661.56 183.944C660.493 184.157 659.704 184.52 659.192 185.032C658.68 185.501 658.424 186.12 658.424 186.888C658.424 187.869 658.765 188.68 659.448 189.32C660.173 189.96 661.197 190.28 662.52 190.28C663.586 190.28 664.525 190.045 665.336 189.576C666.189 189.107 666.872 188.467 667.384 187.656C667.896 186.803 668.152 185.821 668.152 184.712V177.288C668.152 175.752 667.746 174.664 666.936 174.024C666.168 173.384 664.824 173.064 662.904 173.064C661.88 173.064 660.728 173.192 659.448 173.448C658.168 173.661 656.738 174.067 655.16 174.664C654.008 175.091 653.026 175.155 652.216 174.856C651.405 174.557 650.765 174.045 650.296 173.32C649.869 172.595 649.656 171.805 649.656 170.952C649.698 170.099 649.976 169.288 650.488 168.52C651.042 167.752 651.874 167.155 652.984 166.728C655.032 165.96 656.909 165.448 658.616 165.192C660.365 164.936 661.965 164.808 663.416 164.808C666.914 164.808 669.794 165.32 672.056 166.344C674.36 167.325 676.066 168.861 677.176 170.952C678.328 173 678.904 175.645 678.904 178.888V191.816C678.904 193.693 678.456 195.123 677.56 196.104C676.664 197.085 675.362 197.576 673.656 197.576C671.906 197.576 670.562 197.085 669.624 196.104C668.728 195.123 668.28 193.693 668.28 191.816V190.152L668.664 191.048C668.45 192.413 667.96 193.587 667.192 194.568C666.424 195.549 665.421 196.317 664.184 196.872C662.946 197.427 661.538 197.704 659.96 197.704Z" fill="url(#paint0_linear_2747_17353)"/>
<g opacity="0.04">
<mask id="mask0_2747_17353" style="mask-type:alpha" maskUnits="userSpaceOnUse" x="-32" y="2" width="894" height="229">
<rect x="-32" y="2" width="894" height="229" fill="url(#paint1_linear_2747_17353)"/>
</mask>
<g mask="url(#mask0_2747_17353)">
<mask id="mask1_2747_17353" style="mask-type:alpha" maskUnits="userSpaceOnUse" x="-32" y="2" width="896" height="229">
<rect x="-32" y="2" width="896" height="229" fill="url(#paint2_linear_2747_17353)"/>
</mask>
<g mask="url(#mask1_2747_17353)">
<path d="M-32 -2.34043C-32 -2.34043 212.432 -39.5322 415 -2.34043C617.568 34.8514 862 -2.34043 862 -2.34043" stroke="url(#paint3_linear_2747_17353)" stroke-width="14.9" stroke-linecap="round"/>
<path d="M-32 21.4062C-32 21.4062 212.432 -15.7856 415 21.4062C617.568 58.5979 862 21.4062 862 21.4062" stroke="url(#paint4_linear_2747_17353)" stroke-width="14.9" stroke-linecap="round"/>
<path d="M-32 45.1532C-32 45.1532 212.432 7.96143 415 45.1532C617.568 82.345 862 45.1532 862 45.1532" stroke="url(#paint5_linear_2747_17353)" stroke-width="14.9" stroke-linecap="round"/>
<path d="M-32 68.9003C-32 68.9003 212.432 31.7085 415 68.9003C617.568 106.092 862 68.9003 862 68.9003" stroke="url(#paint6_linear_2747_17353)" stroke-width="14.9" stroke-linecap="round"/>
<path d="M-32 92.6469C-32 92.6469 212.432 55.4551 415 92.6469C617.568 129.839 862 92.6469 862 92.6469" stroke="url(#paint7_linear_2747_17353)" stroke-width="14.9" stroke-linecap="round"/>
<path d="M-32 116.394C-32 116.394 212.432 79.2021 415 116.394C617.568 153.586 862 116.394 862 116.394" stroke="url(#paint8_linear_2747_17353)" stroke-width="14.9" stroke-linecap="round"/>
<path d="M-32 140.141C-32 140.141 212.432 102.949 415 140.141C617.568 177.333 862 140.141 862 140.141" stroke="url(#paint9_linear_2747_17353)" stroke-width="14.9" stroke-linecap="round"/>
<path d="M-32 163.888C-32 163.888 212.432 126.696 415 163.888C617.568 201.079 862 163.888 862 163.888" stroke="url(#paint10_linear_2747_17353)" stroke-width="14.9" stroke-linecap="round"/>
<path d="M-32 187.867C-32 187.867 212.432 150.152 415 187.867C617.568 225.583 862 187.867 862 187.867" stroke="url(#paint11_linear_2747_17353)" stroke-width="14.9" stroke-linecap="round"/>
<path d="M-32 211.847C-32 211.847 212.432 174.655 415 211.847C617.568 249.039 862 211.847 862 211.847" stroke="url(#paint12_linear_2747_17353)" stroke-width="14.9" stroke-linecap="round"/>
<path d="M-32 235.827C-32 235.827 212.432 198.111 415 235.827C617.568 273.543 862 235.827 862 235.827" stroke="url(#paint13_linear_2747_17353)" stroke-width="14.9" stroke-linecap="round"/>
</g>
</g>
</g>
</g>
<defs>
<linearGradient id="paint0_linear_2747_17353" x1="408.3" y1="150.266" x2="409.009" y2="207.075" gradientUnits="userSpaceOnUse">
<stop stop-color="#3AB99A"/>
<stop offset="1" stop-color="#1B9E7F"/>
</linearGradient>
<linearGradient id="paint1_linear_2747_17353" x1="415" y1="2" x2="415" y2="231" gradientUnits="userSpaceOnUse">
<stop offset="0.05" stop-color="#10161A" stop-opacity="0"/>
<stop offset="0.2" stop-color="#10161A"/>
<stop offset="0.945282" stop-color="#10161A" stop-opacity="0"/>
</linearGradient>
<linearGradient id="paint2_linear_2747_17353" x1="-32" y1="116.5" x2="864" y2="116.5" gradientUnits="userSpaceOnUse">
<stop stop-color="white" stop-opacity="0"/>
<stop offset="0.3" stop-color="white"/>
<stop offset="0.7" stop-color="white"/>
<stop offset="0.99" stop-color="white" stop-opacity="0.09"/>
</linearGradient>
<linearGradient id="paint3_linear_2747_17353" x1="403.825" y1="-16.5579" x2="403.95" y2="14.2341" gradientUnits="userSpaceOnUse">
<stop stop-color="#3AB99A"/>
<stop offset="1" stop-color="#1B9E7F"/>
</linearGradient>
<linearGradient id="paint4_linear_2747_17353" x1="403.825" y1="7.18865" x2="403.95" y2="37.9807" gradientUnits="userSpaceOnUse">
<stop stop-color="#3AB99A"/>
<stop offset="1" stop-color="#1B9E7F"/>
</linearGradient>
<linearGradient id="paint5_linear_2747_17353" x1="403.825" y1="30.9357" x2="403.95" y2="61.7277" gradientUnits="userSpaceOnUse">
<stop stop-color="#3AB99A"/>
<stop offset="1" stop-color="#1B9E7F"/>
</linearGradient>
<linearGradient id="paint6_linear_2747_17353" x1="403.825" y1="54.6828" x2="403.95" y2="85.4748" gradientUnits="userSpaceOnUse">
<stop stop-color="#3AB99A"/>
<stop offset="1" stop-color="#1B9E7F"/>
</linearGradient>
<linearGradient id="paint7_linear_2747_17353" x1="403.825" y1="78.4294" x2="403.95" y2="109.221" gradientUnits="userSpaceOnUse">
<stop stop-color="#3AB99A"/>
<stop offset="1" stop-color="#1B9E7F"/>
</linearGradient>
<linearGradient id="paint8_linear_2747_17353" x1="403.825" y1="102.176" x2="403.95" y2="132.968" gradientUnits="userSpaceOnUse">
<stop stop-color="#3AB99A"/>
<stop offset="1" stop-color="#1B9E7F"/>
</linearGradient>
<linearGradient id="paint9_linear_2747_17353" x1="403.825" y1="125.924" x2="403.95" y2="156.716" gradientUnits="userSpaceOnUse">
<stop stop-color="#3AB99A"/>
<stop offset="1" stop-color="#1B9E7F"/>
</linearGradient>
<linearGradient id="paint10_linear_2747_17353" x1="403.825" y1="149.67" x2="403.95" y2="180.462" gradientUnits="userSpaceOnUse">
<stop stop-color="#3AB99A"/>
<stop offset="1" stop-color="#1B9E7F"/>
</linearGradient>
<linearGradient id="paint11_linear_2747_17353" x1="403.825" y1="173.45" x2="403.953" y2="204.675" gradientUnits="userSpaceOnUse">
<stop stop-color="#3AB99A"/>
<stop offset="1" stop-color="#1B9E7F"/>
</linearGradient>
<linearGradient id="paint12_linear_2747_17353" x1="403.825" y1="197.63" x2="403.95" y2="228.422" gradientUnits="userSpaceOnUse">
<stop stop-color="#3AB99A"/>
<stop offset="1" stop-color="#1B9E7F"/>
</linearGradient>
<linearGradient id="paint13_linear_2747_17353" x1="403.825" y1="221.409" x2="403.953" y2="252.635" gradientUnits="userSpaceOnUse">
<stop stop-color="#3AB99A"/>
<stop offset="1" stop-color="#1B9E7F"/>
</linearGradient>
<clipPath id="clip0_2747_17353">
<rect width="830" height="233" fill="white"/>
</clipPath>
</defs>
</svg>
