<svg width="830" height="300" viewBox="0 0 830 300" fill="none" xmlns="http://www.w3.org/2000/svg">
<rect width="830" height="300" fill="#141C21"/>
<g clip-path="url(#clip0_2762_17284)">
<rect width="830" height="233" fill="#141C21"/>
<g opacity="0.04">
<mask id="mask0_2762_17284" style="mask-type:alpha" maskUnits="userSpaceOnUse" x="-32" y="2" width="894" height="229">
<rect x="-32" y="2" width="894" height="229" fill="url(#paint0_linear_2762_17284)"/>
</mask>
<g mask="url(#mask0_2762_17284)">
<mask id="mask1_2762_17284" style="mask-type:alpha" maskUnits="userSpaceOnUse" x="-32" y="2" width="896" height="229">
<rect x="-32" y="2" width="896" height="229" fill="url(#paint1_linear_2762_17284)"/>
</mask>
<g mask="url(#mask1_2762_17284)">
<path d="M-32 -2.34043C-32 -2.34043 212.432 -39.5322 415 -2.34043C617.568 34.8514 862 -2.34043 862 -2.34043" stroke="url(#paint2_linear_2762_17284)" stroke-width="14.9" stroke-linecap="round"/>
<path d="M-32 21.4062C-32 21.4062 212.432 -15.7856 415 21.4062C617.568 58.5979 862 21.4062 862 21.4062" stroke="url(#paint3_linear_2762_17284)" stroke-width="14.9" stroke-linecap="round"/>
<path d="M-32 45.1532C-32 45.1532 212.432 7.96143 415 45.1532C617.568 82.345 862 45.1532 862 45.1532" stroke="url(#paint4_linear_2762_17284)" stroke-width="14.9" stroke-linecap="round"/>
<path d="M-32 68.9003C-32 68.9003 212.432 31.7085 415 68.9003C617.568 106.092 862 68.9003 862 68.9003" stroke="url(#paint5_linear_2762_17284)" stroke-width="14.9" stroke-linecap="round"/>
<path d="M-32 92.6469C-32 92.6469 212.432 55.4551 415 92.6469C617.568 129.839 862 92.6469 862 92.6469" stroke="url(#paint6_linear_2762_17284)" stroke-width="14.9" stroke-linecap="round"/>
<path d="M-32 116.394C-32 116.394 212.432 79.2021 415 116.394C617.568 153.586 862 116.394 862 116.394" stroke="url(#paint7_linear_2762_17284)" stroke-width="14.9" stroke-linecap="round"/>
<path d="M-32 140.141C-32 140.141 212.432 102.949 415 140.141C617.568 177.333 862 140.141 862 140.141" stroke="url(#paint8_linear_2762_17284)" stroke-width="14.9" stroke-linecap="round"/>
<path d="M-32 163.888C-32 163.888 212.432 126.696 415 163.888C617.568 201.079 862 163.888 862 163.888" stroke="url(#paint9_linear_2762_17284)" stroke-width="14.9" stroke-linecap="round"/>
<path d="M-32 187.867C-32 187.867 212.432 150.152 415 187.867C617.568 225.583 862 187.867 862 187.867" stroke="url(#paint10_linear_2762_17284)" stroke-width="14.9" stroke-linecap="round"/>
<path d="M-32 211.847C-32 211.847 212.432 174.655 415 211.847C617.568 249.039 862 211.847 862 211.847" stroke="url(#paint11_linear_2762_17284)" stroke-width="14.9" stroke-linecap="round"/>
<path d="M-32 235.827C-32 235.827 212.432 198.111 415 235.827C617.568 273.543 862 235.827 862 235.827" stroke="url(#paint12_linear_2762_17284)" stroke-width="14.9" stroke-linecap="round"/>
</g>
</g>
</g>
<path d="M449.021 79.2732C457.629 79.2732 464.608 85.5776 464.608 93.3544C464.608 97.3977 462.722 101.043 459.701 103.611C461.192 105.353 461.144 107.377 461.144 109.522L475 101.177V132.469L461.144 124.125V126.211C461.144 129.667 458.043 132.469 454.216 132.469H423.041C419.215 132.469 416.113 129.667 416.113 126.211V116.022C410.059 114.089 405.722 108.873 405.722 102.742C405.722 94.9651 412.7 88.6607 421.309 88.6607C426.213 88.6607 430.587 90.706 433.445 93.9036C433.341 91.4574 433.956 89.0041 435.173 86.8831C437.767 82.3622 442.995 79.2732 449.021 79.2732Z" fill="#F5F5F5"/>
<path fill-rule="evenodd" clip-rule="evenodd" d="M391 33.5C410.882 33.5 427 49.1562 427 68.4691V79.3649C425.376 79.0165 423.701 78.8151 421.995 78.7724C422.723 76.8667 423.143 74.6206 423.143 72.2158C423.143 65.3183 419.689 59.7268 415.429 59.7268C411.168 59.7268 407.714 65.3183 407.714 72.2158C407.714 75.7612 408.627 78.9617 410.092 81.2349C401.924 85.0007 395.825 92.7993 395.825 102.742C395.825 110.983 400.12 117.836 406.216 122.058V126.211C406.216 127.123 406.289 128.005 406.429 128.854V133.412C406.429 136.171 404.126 138.407 401.286 138.407C398.445 138.407 396.143 136.171 396.143 133.412V128.416C396.143 125.657 393.84 123.42 391 123.42C388.16 123.42 385.857 125.657 385.857 128.416V133.412C385.857 136.171 383.555 138.407 380.714 138.407C377.874 138.407 375.571 136.171 375.571 133.412V128.416C375.571 125.657 373.269 123.42 370.429 123.42C367.588 123.42 365.286 125.657 365.286 128.416V133.412C365.286 136.171 362.983 138.407 360.143 138.407C357.303 138.407 355 136.171 355 133.412V68.4691C355 49.1562 371.118 33.5 391 33.5ZM389.714 84.7047C393.975 84.7047 397.429 79.1132 397.429 72.2158C397.429 65.3183 393.975 59.7268 389.714 59.7268C385.454 59.7268 382 65.3183 382 72.2158C382 79.1132 385.454 84.7047 389.714 84.7047Z" fill="#F5F5F5"/>
<path d="M156.984 197.576C155.107 197.576 153.656 197.064 152.632 196.04C151.608 194.973 151.096 193.501 151.096 191.624V157.832C151.096 155.912 151.608 154.44 152.632 153.416C153.699 152.392 155.171 151.88 157.048 151.88H172.792C177.912 151.88 181.859 153.203 184.632 155.848C187.448 158.451 188.856 162.056 188.856 166.664C188.856 171.272 187.448 174.899 184.632 177.544C181.859 180.147 177.912 181.448 172.792 181.448H162.872V191.624C162.872 193.501 162.381 194.973 161.4 196.04C160.419 197.064 158.947 197.576 156.984 197.576ZM162.872 172.424H170.744C172.963 172.424 174.669 171.955 175.864 171.016C177.059 170.035 177.656 168.584 177.656 166.664C177.656 164.701 177.059 163.251 175.864 162.312C174.669 161.373 172.963 160.904 170.744 160.904H162.872V172.424ZM199.21 197.576C197.418 197.576 196.031 197.085 195.05 196.104C194.069 195.123 193.578 193.693 193.578 191.816V157.064C193.578 155.187 194.069 153.757 195.05 152.776C196.031 151.795 197.418 151.304 199.21 151.304C201.045 151.304 202.453 151.795 203.434 152.776C204.458 153.757 204.97 155.187 204.97 157.064V171.016H203.946C204.97 169.011 206.421 167.475 208.298 166.408C210.218 165.341 212.394 164.808 214.826 164.808C217.343 164.808 219.413 165.299 221.034 166.28C222.655 167.219 223.871 168.712 224.682 170.76C225.493 172.765 225.898 175.304 225.898 178.376V191.816C225.898 193.693 225.407 195.123 224.426 196.104C223.445 197.085 222.037 197.576 220.202 197.576C218.367 197.576 216.959 197.085 215.978 196.104C214.997 195.123 214.506 193.693 214.506 191.816V178.824C214.506 176.904 214.165 175.539 213.482 174.728C212.842 173.917 211.882 173.512 210.602 173.512C208.895 173.512 207.53 174.067 206.506 175.176C205.482 176.243 204.97 177.693 204.97 179.528V191.816C204.97 195.656 203.05 197.576 199.21 197.576ZM243.335 197.704C240.903 197.704 238.748 197.256 236.871 196.36C235.036 195.464 233.585 194.248 232.519 192.712C231.495 191.133 230.983 189.341 230.983 187.336C230.983 185.032 231.58 183.219 232.775 181.896C233.969 180.573 235.889 179.635 238.535 179.08C241.18 178.483 244.7 178.184 249.095 178.184H252.615V183.56H249.095C247.431 183.56 246.044 183.688 244.935 183.944C243.868 184.157 243.079 184.52 242.567 185.032C242.055 185.501 241.799 186.12 241.799 186.888C241.799 187.869 242.14 188.68 242.823 189.32C243.548 189.96 244.572 190.28 245.895 190.28C246.961 190.28 247.9 190.045 248.711 189.576C249.564 189.107 250.247 188.467 250.759 187.656C251.271 186.803 251.527 185.821 251.527 184.712V177.288C251.527 175.752 251.121 174.664 250.311 174.024C249.543 173.384 248.199 173.064 246.279 173.064C245.255 173.064 244.103 173.192 242.823 173.448C241.543 173.661 240.113 174.067 238.535 174.664C237.383 175.091 236.401 175.155 235.591 174.856C234.78 174.557 234.14 174.045 233.671 173.32C233.244 172.595 233.031 171.805 233.031 170.952C233.073 170.099 233.351 169.288 233.863 168.52C234.417 167.752 235.249 167.155 236.359 166.728C238.407 165.96 240.284 165.448 241.991 165.192C243.74 164.936 245.34 164.808 246.791 164.808C250.289 164.808 253.169 165.32 255.431 166.344C257.735 167.325 259.441 168.861 260.551 170.952C261.703 173 262.279 175.645 262.279 178.888V191.816C262.279 193.693 261.831 195.123 260.935 196.104C260.039 197.085 258.737 197.576 257.031 197.576C255.281 197.576 253.937 197.085 252.999 196.104C252.103 195.123 251.655 193.693 251.655 191.816V190.152L252.039 191.048C251.825 192.413 251.335 193.587 250.567 194.568C249.799 195.549 248.796 196.317 247.559 196.872C246.321 197.427 244.913 197.704 243.335 197.704ZM274.398 197.576C272.606 197.576 271.219 197.085 270.238 196.104C269.256 195.123 268.766 193.693 268.766 191.816V170.632C268.766 168.797 269.235 167.389 270.174 166.408C271.155 165.427 272.542 164.936 274.334 164.936C276.126 164.936 277.491 165.427 278.43 166.408C279.368 167.389 279.838 168.797 279.838 170.632V173.64L279.134 171.016C280.158 169.011 281.608 167.475 283.486 166.408C285.406 165.341 287.582 164.808 290.014 164.808C292.531 164.808 294.6 165.299 296.222 166.28C297.843 167.219 299.059 168.712 299.87 170.76C300.68 172.765 301.086 175.304 301.086 178.376V191.816C301.086 193.693 300.595 195.123 299.614 196.104C298.632 197.085 297.224 197.576 295.39 197.576C293.555 197.576 292.147 197.085 291.166 196.104C290.184 195.123 289.694 193.693 289.694 191.816V178.824C289.694 176.904 289.352 175.539 288.67 174.728C288.03 173.917 287.07 173.512 285.79 173.512C284.083 173.512 282.718 174.067 281.694 175.176C280.67 176.243 280.158 177.693 280.158 179.528V191.816C280.158 195.656 278.238 197.576 274.398 197.576ZM324.09 197.704C320.89 197.704 318.245 197.213 316.154 196.232C314.106 195.251 312.57 193.779 311.546 191.816C310.522 189.811 310.01 187.315 310.01 184.328V173.896H307.834C306.469 173.896 305.402 173.533 304.634 172.808C303.909 172.083 303.546 171.037 303.546 169.672C303.546 168.307 303.909 167.283 304.634 166.6C305.402 165.875 306.469 165.512 307.834 165.512H310.01V161.544C310.01 159.667 310.501 158.237 311.482 157.256C312.463 156.275 313.871 155.784 315.706 155.784C317.541 155.784 318.949 156.275 319.93 157.256C320.911 158.237 321.402 159.667 321.402 161.544V165.512H326.65C328.058 165.512 329.125 165.875 329.85 166.6C330.618 167.283 331.002 168.307 331.002 169.672C331.002 171.037 330.618 172.083 329.85 172.808C329.125 173.533 328.058 173.896 326.65 173.896H321.402V183.944C321.402 185.523 321.765 186.696 322.49 187.464C323.258 188.189 324.453 188.552 326.074 188.552C326.671 188.552 327.247 188.488 327.802 188.36C328.357 188.232 328.869 188.168 329.338 188.168C330.021 188.125 330.575 188.339 331.002 188.808C331.429 189.235 331.642 190.237 331.642 191.816C331.642 193.096 331.45 194.184 331.066 195.08C330.682 195.933 329.999 196.552 329.018 196.936C328.421 197.149 327.61 197.32 326.586 197.448C325.562 197.619 324.73 197.704 324.09 197.704ZM350.452 197.704C346.953 197.704 343.902 197.043 341.3 195.72C338.697 194.397 336.67 192.499 335.22 190.024C333.769 187.549 333.044 184.627 333.044 181.256C333.044 178.696 333.449 176.413 334.26 174.408C335.07 172.36 336.244 170.632 337.78 169.224C339.316 167.773 341.15 166.685 343.284 165.96C345.417 165.192 347.806 164.808 350.452 164.808C353.95 164.808 357.001 165.469 359.604 166.792C362.206 168.115 364.212 170.013 365.62 172.488C367.07 174.92 367.796 177.843 367.796 181.256C367.796 183.773 367.39 186.056 366.58 188.104C365.769 190.152 364.596 191.901 363.06 193.352C361.566 194.76 359.732 195.848 357.556 196.616C355.422 197.341 353.054 197.704 350.452 197.704ZM350.452 189.32C351.604 189.32 352.628 189.043 353.524 188.488C354.42 187.891 355.102 187.016 355.572 185.864C356.084 184.669 356.34 183.133 356.34 181.256C356.34 178.397 355.785 176.349 354.676 175.112C353.566 173.832 352.158 173.192 350.452 173.192C349.3 173.192 348.276 173.469 347.38 174.024C346.484 174.579 345.78 175.453 345.268 176.648C344.756 177.8 344.5 179.336 344.5 181.256C344.5 184.072 345.054 186.12 346.164 187.4C347.273 188.68 348.702 189.32 350.452 189.32ZM378.776 197.576C376.984 197.576 375.597 197.085 374.616 196.104C373.634 195.123 373.144 193.693 373.144 191.816V170.632C373.144 168.797 373.613 167.389 374.552 166.408C375.533 165.427 376.92 164.936 378.712 164.936C380.504 164.936 381.869 165.427 382.808 166.408C383.746 167.389 384.216 168.797 384.216 170.632V174.152L383.512 171.016C384.408 169.139 385.73 167.645 387.48 166.536C389.272 165.384 391.384 164.808 393.816 164.808C396.12 164.808 398.082 165.363 399.704 166.472C401.368 167.581 402.562 169.267 403.288 171.528H402.392C403.373 169.437 404.845 167.795 406.808 166.6C408.77 165.405 410.946 164.808 413.336 164.808C415.81 164.808 417.837 165.299 419.416 166.28C420.994 167.219 422.168 168.712 422.936 170.76C423.746 172.765 424.152 175.304 424.152 178.376V191.816C424.152 193.693 423.64 195.123 422.616 196.104C421.634 197.085 420.226 197.576 418.392 197.576C416.6 197.576 415.213 197.085 414.232 196.104C413.25 195.123 412.76 193.693 412.76 191.816V178.696C412.76 176.861 412.482 175.539 411.928 174.728C411.373 173.917 410.456 173.512 409.176 173.512C407.597 173.512 406.381 174.067 405.528 175.176C404.717 176.285 404.312 177.864 404.312 179.912V191.816C404.312 193.693 403.821 195.123 402.84 196.104C401.858 197.085 400.45 197.576 398.616 197.576C396.781 197.576 395.373 197.085 394.392 196.104C393.41 195.123 392.92 193.693 392.92 191.816V178.696C392.92 176.861 392.642 175.539 392.088 174.728C391.533 173.917 390.616 173.512 389.336 173.512C387.8 173.512 386.605 174.067 385.752 175.176C384.941 176.285 384.536 177.864 384.536 179.912V191.816C384.536 195.656 382.616 197.576 378.776 197.576ZM472.63 197.704C467.638 197.704 463.35 196.744 459.766 194.824C456.182 192.904 453.43 190.195 451.51 186.696C449.633 183.197 448.694 179.101 448.694 174.408C448.694 170.909 449.227 167.731 450.294 164.872C451.403 162.013 452.982 159.56 455.03 157.512C457.121 155.464 459.638 153.907 462.582 152.84C465.569 151.731 468.918 151.176 472.63 151.176C474.593 151.176 476.619 151.411 478.71 151.88C480.843 152.307 482.721 152.968 484.342 153.864C485.537 154.504 486.369 155.315 486.838 156.296C487.307 157.277 487.457 158.28 487.286 159.304C487.158 160.328 486.795 161.245 486.198 162.056C485.601 162.867 484.833 163.421 483.894 163.72C482.955 163.976 481.931 163.827 480.822 163.272C479.542 162.675 478.262 162.227 476.982 161.928C475.745 161.587 474.443 161.416 473.078 161.416C470.433 161.416 468.214 161.928 466.422 162.952C464.673 163.933 463.35 165.384 462.454 167.304C461.558 169.224 461.11 171.592 461.11 174.408C461.11 177.224 461.558 179.613 462.454 181.576C463.35 183.496 464.673 184.968 466.422 185.992C468.214 186.973 470.433 187.464 473.078 187.464C474.187 187.464 475.382 187.336 476.662 187.08C477.942 186.781 479.201 186.333 480.438 185.736C481.718 185.181 482.849 185.032 483.83 185.288C484.854 185.544 485.665 186.056 486.262 186.824C486.902 187.592 487.307 188.488 487.478 189.512C487.649 190.493 487.499 191.475 487.03 192.456C486.603 193.437 485.835 194.227 484.726 194.824C483.233 195.72 481.377 196.424 479.158 196.936C476.982 197.448 474.806 197.704 472.63 197.704ZM502.897 197.704C500.465 197.704 498.31 197.256 496.433 196.36C494.598 195.464 493.148 194.248 492.081 192.712C491.057 191.133 490.545 189.341 490.545 187.336C490.545 185.032 491.142 183.219 492.337 181.896C493.532 180.573 495.452 179.635 498.097 179.08C500.742 178.483 504.262 178.184 508.657 178.184H512.177V183.56H508.657C506.993 183.56 505.606 183.688 504.497 183.944C503.43 184.157 502.641 184.52 502.129 185.032C501.617 185.501 501.361 186.12 501.361 186.888C501.361 187.869 501.702 188.68 502.385 189.32C503.11 189.96 504.134 190.28 505.457 190.28C506.524 190.28 507.462 190.045 508.273 189.576C509.126 189.107 509.809 188.467 510.321 187.656C510.833 186.803 511.089 185.821 511.089 184.712V177.288C511.089 175.752 510.684 174.664 509.873 174.024C509.105 173.384 507.761 173.064 505.841 173.064C504.817 173.064 503.665 173.192 502.385 173.448C501.105 173.661 499.676 174.067 498.097 174.664C496.945 175.091 495.964 175.155 495.153 174.856C494.342 174.557 493.702 174.045 493.233 173.32C492.806 172.595 492.593 171.805 492.593 170.952C492.636 170.099 492.913 169.288 493.425 168.52C493.98 167.752 494.812 167.155 495.921 166.728C497.969 165.96 499.846 165.448 501.553 165.192C503.302 164.936 504.902 164.808 506.353 164.808C509.852 164.808 512.732 165.32 514.993 166.344C517.297 167.325 519.004 168.861 520.113 170.952C521.265 173 521.841 175.645 521.841 178.888V191.816C521.841 193.693 521.393 195.123 520.497 196.104C519.601 197.085 518.3 197.576 516.593 197.576C514.844 197.576 513.5 197.085 512.561 196.104C511.665 195.123 511.217 193.693 511.217 191.816V190.152L511.601 191.048C511.388 192.413 510.897 193.587 510.129 194.568C509.361 195.549 508.358 196.317 507.121 196.872C505.884 197.427 504.476 197.704 502.897 197.704ZM534.088 197.576C532.296 197.576 530.909 197.085 529.928 196.104C528.947 195.123 528.456 193.693 528.456 191.816V170.632C528.456 168.797 528.925 167.389 529.864 166.408C530.845 165.427 532.232 164.936 534.024 164.936C535.816 164.936 537.181 165.427 538.12 166.408C539.059 167.389 539.528 168.797 539.528 170.632V174.152L538.824 171.016C539.72 169.139 541.043 167.645 542.792 166.536C544.584 165.384 546.696 164.808 549.128 164.808C551.432 164.808 553.395 165.363 555.016 166.472C556.68 167.581 557.875 169.267 558.6 171.528H557.704C558.685 169.437 560.157 167.795 562.12 166.6C564.083 165.405 566.259 164.808 568.648 164.808C571.123 164.808 573.149 165.299 574.728 166.28C576.307 167.219 577.48 168.712 578.248 170.76C579.059 172.765 579.464 175.304 579.464 178.376V191.816C579.464 193.693 578.952 195.123 577.928 196.104C576.947 197.085 575.539 197.576 573.704 197.576C571.912 197.576 570.525 197.085 569.544 196.104C568.563 195.123 568.072 193.693 568.072 191.816V178.696C568.072 176.861 567.795 175.539 567.24 174.728C566.685 173.917 565.768 173.512 564.488 173.512C562.909 173.512 561.693 174.067 560.84 175.176C560.029 176.285 559.624 177.864 559.624 179.912V191.816C559.624 193.693 559.133 195.123 558.152 196.104C557.171 197.085 555.763 197.576 553.928 197.576C552.093 197.576 550.685 197.085 549.704 196.104C548.723 195.123 548.232 193.693 548.232 191.816V178.696C548.232 176.861 547.955 175.539 547.4 174.728C546.845 173.917 545.928 173.512 544.648 173.512C543.112 173.512 541.917 174.067 541.064 175.176C540.253 176.285 539.848 177.864 539.848 179.912V191.816C539.848 195.656 537.928 197.576 534.088 197.576ZM603.23 197.704C599.39 197.704 596.062 197.043 593.246 195.72C590.473 194.355 588.339 192.435 586.846 189.96C585.353 187.485 584.606 184.563 584.606 181.192C584.606 177.949 585.31 175.112 586.718 172.68C588.169 170.205 590.131 168.285 592.606 166.92C595.123 165.512 597.982 164.808 601.182 164.808C603.529 164.808 605.662 165.192 607.582 165.96C609.502 166.685 611.145 167.773 612.51 169.224C613.875 170.632 614.899 172.339 615.582 174.344C616.307 176.349 616.67 178.589 616.67 181.064C616.67 181.917 616.435 182.557 615.966 182.984C615.497 183.368 614.75 183.56 613.726 183.56H594.142V178.184H608.35L607.326 179.016C607.326 177.437 607.113 176.157 606.686 175.176C606.259 174.195 605.619 173.448 604.766 172.936C603.955 172.424 602.931 172.168 601.694 172.168C600.371 172.168 599.219 172.488 598.238 173.128C597.299 173.725 596.574 174.621 596.062 175.816C595.55 177.011 595.294 178.504 595.294 180.296V180.872C595.294 183.901 595.955 186.077 597.278 187.4C598.643 188.68 600.734 189.32 603.55 189.32C604.489 189.32 605.555 189.213 606.75 189C607.987 188.744 609.161 188.403 610.27 187.976C611.379 187.549 612.339 187.485 613.15 187.784C613.961 188.04 614.579 188.509 615.006 189.192C615.475 189.832 615.731 190.579 615.774 191.432C615.817 192.243 615.625 193.053 615.198 193.864C614.771 194.632 614.067 195.229 613.086 195.656C611.593 196.339 609.993 196.851 608.286 197.192C606.622 197.533 604.937 197.704 603.23 197.704ZM627.402 197.576C625.525 197.576 624.074 197.085 623.05 196.104C622.069 195.123 621.578 193.693 621.578 191.816V170.632C621.578 168.797 622.047 167.389 622.986 166.408C623.967 165.427 625.354 164.936 627.146 164.936C628.938 164.936 630.303 165.427 631.242 166.408C632.181 167.389 632.65 168.797 632.65 170.632V173.256H632.01C632.437 170.696 633.525 168.669 635.274 167.176C637.066 165.683 639.285 164.893 641.93 164.808C643.167 164.765 644.085 165.085 644.682 165.768C645.322 166.408 645.663 167.624 645.706 169.416C645.706 170.952 645.386 172.168 644.746 173.064C644.106 173.96 642.89 174.493 641.098 174.664L639.626 174.792C637.365 175.005 635.722 175.645 634.698 176.712C633.674 177.736 633.162 179.272 633.162 181.32V191.816C633.162 193.693 632.671 195.123 631.69 196.104C630.709 197.085 629.279 197.576 627.402 197.576ZM659.96 197.704C657.528 197.704 655.373 197.256 653.496 196.36C651.661 195.464 650.21 194.248 649.144 192.712C648.12 191.133 647.608 189.341 647.608 187.336C647.608 185.032 648.205 183.219 649.4 181.896C650.594 180.573 652.514 179.635 655.16 179.08C657.805 178.483 661.325 178.184 665.72 178.184H669.24V183.56H665.72C664.056 183.56 662.669 183.688 661.56 183.944C660.493 184.157 659.704 184.52 659.192 185.032C658.68 185.501 658.424 186.12 658.424 186.888C658.424 187.869 658.765 188.68 659.448 189.32C660.173 189.96 661.197 190.28 662.52 190.28C663.586 190.28 664.525 190.045 665.336 189.576C666.189 189.107 666.872 188.467 667.384 187.656C667.896 186.803 668.152 185.821 668.152 184.712V177.288C668.152 175.752 667.746 174.664 666.936 174.024C666.168 173.384 664.824 173.064 662.904 173.064C661.88 173.064 660.728 173.192 659.448 173.448C658.168 173.661 656.738 174.067 655.16 174.664C654.008 175.091 653.026 175.155 652.216 174.856C651.405 174.557 650.765 174.045 650.296 173.32C649.869 172.595 649.656 171.805 649.656 170.952C649.698 170.099 649.976 169.288 650.488 168.52C651.042 167.752 651.874 167.155 652.984 166.728C655.032 165.96 656.909 165.448 658.616 165.192C660.365 164.936 661.965 164.808 663.416 164.808C666.914 164.808 669.794 165.32 672.056 166.344C674.36 167.325 676.066 168.861 677.176 170.952C678.328 173 678.904 175.645 678.904 178.888V191.816C678.904 193.693 678.456 195.123 677.56 196.104C676.664 197.085 675.362 197.576 673.656 197.576C671.906 197.576 670.562 197.085 669.624 196.104C668.728 195.123 668.28 193.693 668.28 191.816V190.152L668.664 191.048C668.45 192.413 667.96 193.587 667.192 194.568C666.424 195.549 665.421 196.317 664.184 196.872C662.946 197.427 661.538 197.704 659.96 197.704Z" fill="url(#paint13_linear_2762_17284)"/>
</g>
<rect x="285.5" y="215" width="259" height="52" rx="10" fill="url(#paint14_linear_2762_17284)"/>
<path d="M300.714 252C299.711 252 298.943 251.744 298.41 251.232C297.898 250.699 297.642 249.941 297.642 248.96V232.48C297.642 231.499 297.898 230.752 298.41 230.24C298.943 229.707 299.711 229.44 300.714 229.44H306.986C310.911 229.44 313.94 230.421 316.074 232.384C318.228 234.347 319.306 237.12 319.306 240.704C319.306 242.496 319.028 244.096 318.474 245.504C317.919 246.891 317.119 248.075 316.074 249.056C315.028 250.016 313.738 250.752 312.202 251.264C310.687 251.755 308.948 252 306.986 252H300.714ZM303.53 247.232H306.602C307.732 247.232 308.703 247.093 309.514 246.816C310.346 246.539 311.028 246.133 311.562 245.6C312.116 245.067 312.522 244.395 312.778 243.584C313.055 242.773 313.194 241.813 313.194 240.704C313.194 238.485 312.65 236.853 311.562 235.808C310.474 234.741 308.82 234.208 306.602 234.208H303.53V247.232ZM330.382 252.352C328.633 252.352 327.107 252.021 325.806 251.36C324.505 250.699 323.491 249.749 322.766 248.512C322.041 247.275 321.678 245.813 321.678 244.128C321.678 242.848 321.881 241.707 322.286 240.704C322.691 239.68 323.278 238.816 324.046 238.112C324.814 237.387 325.731 236.843 326.798 236.48C327.865 236.096 329.059 235.904 330.382 235.904C332.131 235.904 333.657 236.235 334.958 236.896C336.259 237.557 337.262 238.507 337.966 239.744C338.691 240.96 339.054 242.421 339.054 244.128C339.054 245.387 338.851 246.528 338.446 247.552C338.041 248.576 337.454 249.451 336.686 250.176C335.939 250.88 335.022 251.424 333.934 251.808C332.867 252.171 331.683 252.352 330.382 252.352ZM330.382 248.16C330.958 248.16 331.47 248.021 331.918 247.744C332.366 247.445 332.707 247.008 332.942 246.432C333.198 245.835 333.326 245.067 333.326 244.128C333.326 242.699 333.049 241.675 332.494 241.056C331.939 240.416 331.235 240.096 330.382 240.096C329.806 240.096 329.294 240.235 328.846 240.512C328.398 240.789 328.046 241.227 327.79 241.824C327.534 242.4 327.406 243.168 327.406 244.128C327.406 245.536 327.683 246.56 328.238 247.2C328.793 247.84 329.507 248.16 330.382 248.16ZM349.696 252.352C347.925 252.352 346.379 252.021 345.056 251.36C343.755 250.699 342.741 249.749 342.016 248.512C341.291 247.253 340.928 245.781 340.928 244.096C340.928 242.816 341.131 241.675 341.536 240.672C341.941 239.648 342.528 238.784 343.296 238.08C344.085 237.376 345.013 236.843 346.08 236.48C347.168 236.096 348.373 235.904 349.696 235.904C350.315 235.904 350.965 235.968 351.648 236.096C352.331 236.203 353.035 236.416 353.76 236.736C354.272 236.928 354.624 237.227 354.816 237.632C355.029 238.016 355.115 238.432 355.072 238.88C355.051 239.328 354.923 239.733 354.688 240.096C354.475 240.459 354.165 240.704 353.76 240.832C353.376 240.96 352.939 240.907 352.448 240.672C352.107 240.501 351.744 240.384 351.36 240.32C350.997 240.235 350.645 240.192 350.304 240.192C349.728 240.192 349.216 240.277 348.768 240.448C348.341 240.619 347.979 240.875 347.68 241.216C347.381 241.536 347.147 241.941 346.976 242.432C346.827 242.923 346.752 243.477 346.752 244.096C346.752 245.333 347.061 246.304 347.68 247.008C348.299 247.712 349.173 248.064 350.304 248.064C350.645 248.064 350.997 248.032 351.36 247.968C351.723 247.883 352.085 247.755 352.448 247.584C352.939 247.349 353.376 247.307 353.76 247.456C354.144 247.584 354.453 247.829 354.688 248.192C354.923 248.555 355.051 248.96 355.072 249.408C355.093 249.835 354.997 250.251 354.784 250.656C354.571 251.04 354.208 251.328 353.696 251.52C352.992 251.84 352.299 252.053 351.616 252.16C350.955 252.288 350.315 252.352 349.696 252.352ZM363.052 252.352C361.687 252.352 360.567 252.107 359.692 251.616C358.817 251.104 358.156 250.347 357.708 249.344C357.281 248.341 357.068 247.072 357.068 245.536V238.816C357.068 237.877 357.313 237.173 357.804 236.704C358.295 236.213 358.999 235.968 359.916 235.968C360.833 235.968 361.537 236.213 362.028 236.704C362.519 237.173 362.764 237.877 362.764 238.816V245.696C362.764 246.464 362.924 247.04 363.244 247.424C363.564 247.808 364.065 248 364.748 248C365.516 248 366.145 247.723 366.636 247.168C367.127 246.613 367.372 245.877 367.372 244.96V238.816C367.372 237.877 367.617 237.173 368.108 236.704C368.599 236.213 369.303 235.968 370.22 235.968C371.137 235.968 371.841 236.213 372.332 236.704C372.823 237.173 373.068 237.877 373.068 238.816V249.408C373.068 251.328 372.151 252.288 370.316 252.288C369.42 252.288 368.727 252.043 368.236 251.552C367.745 251.061 367.5 250.347 367.5 249.408V247.552L368.012 249.12C367.543 250.165 366.881 250.965 366.028 251.52C365.196 252.075 364.204 252.352 363.052 252.352ZM379.263 252.288C378.367 252.288 377.673 252.043 377.183 251.552C376.692 251.061 376.447 250.347 376.447 249.408V238.816C376.447 237.899 376.681 237.195 377.151 236.704C377.641 236.213 378.335 235.968 379.231 235.968C380.127 235.968 380.809 236.213 381.279 236.704C381.748 237.195 381.983 237.899 381.983 238.816V240.576L381.631 239.008C382.079 238.069 382.74 237.323 383.615 236.768C384.511 236.192 385.567 235.904 386.783 235.904C387.935 235.904 388.916 236.181 389.727 236.736C390.559 237.291 391.156 238.133 391.519 239.264H391.071C391.561 238.219 392.297 237.397 393.279 236.8C394.26 236.203 395.348 235.904 396.543 235.904C397.78 235.904 398.793 236.149 399.583 236.64C400.372 237.109 400.959 237.856 401.343 238.88C401.748 239.883 401.951 241.152 401.951 242.688V249.408C401.951 250.347 401.695 251.061 401.183 251.552C400.692 252.043 399.988 252.288 399.071 252.288C398.175 252.288 397.481 252.043 396.991 251.552C396.5 251.061 396.255 250.347 396.255 249.408V242.848C396.255 241.931 396.116 241.269 395.839 240.864C395.561 240.459 395.103 240.256 394.463 240.256C393.673 240.256 393.065 240.533 392.639 241.088C392.233 241.643 392.031 242.432 392.031 243.456V249.408C392.031 250.347 391.785 251.061 391.295 251.552C390.804 252.043 390.1 252.288 389.183 252.288C388.265 252.288 387.561 252.043 387.071 251.552C386.58 251.061 386.335 250.347 386.335 249.408V242.848C386.335 241.931 386.196 241.269 385.919 240.864C385.641 240.459 385.183 240.256 384.543 240.256C383.775 240.256 383.177 240.533 382.751 241.088C382.345 241.643 382.143 242.432 382.143 243.456V249.408C382.143 251.328 381.183 252.288 379.263 252.288ZM413.834 252.352C411.914 252.352 410.25 252.021 408.842 251.36C407.455 250.677 406.388 249.717 405.642 248.48C404.895 247.243 404.522 245.781 404.522 244.096C404.522 242.475 404.874 241.056 405.578 239.84C406.303 238.603 407.284 237.643 408.522 236.96C409.78 236.256 411.21 235.904 412.81 235.904C413.983 235.904 415.05 236.096 416.01 236.48C416.97 236.843 417.791 237.387 418.474 238.112C419.156 238.816 419.668 239.669 420.01 240.672C420.372 241.675 420.554 242.795 420.554 244.032C420.554 244.459 420.436 244.779 420.202 244.992C419.967 245.184 419.594 245.28 419.082 245.28H409.29V242.592H416.394L415.882 243.008C415.882 242.219 415.775 241.579 415.562 241.088C415.348 240.597 415.028 240.224 414.602 239.968C414.196 239.712 413.684 239.584 413.066 239.584C412.404 239.584 411.828 239.744 411.338 240.064C410.868 240.363 410.506 240.811 410.25 241.408C409.994 242.005 409.866 242.752 409.866 243.648V243.936C409.866 245.451 410.196 246.539 410.858 247.2C411.54 247.84 412.586 248.16 413.994 248.16C414.463 248.16 414.996 248.107 415.594 248C416.212 247.872 416.799 247.701 417.354 247.488C417.908 247.275 418.388 247.243 418.794 247.392C419.199 247.52 419.508 247.755 419.722 248.096C419.956 248.416 420.084 248.789 420.106 249.216C420.127 249.621 420.031 250.027 419.818 250.432C419.604 250.816 419.252 251.115 418.762 251.328C418.015 251.669 417.215 251.925 416.362 252.096C415.53 252.267 414.687 252.352 413.834 252.352ZM425.824 252.288C424.928 252.288 424.234 252.043 423.744 251.552C423.253 251.061 423.008 250.347 423.008 249.408V238.816C423.008 237.899 423.242 237.195 423.712 236.704C424.202 236.213 424.896 235.968 425.792 235.968C426.688 235.968 427.37 236.213 427.84 236.704C428.309 237.195 428.544 237.899 428.544 238.816V240.32L428.192 239.008C428.704 238.005 429.429 237.237 430.368 236.704C431.328 236.171 432.416 235.904 433.632 235.904C434.89 235.904 435.925 236.149 436.736 236.64C437.546 237.109 438.154 237.856 438.56 238.88C438.965 239.883 439.168 241.152 439.168 242.688V249.408C439.168 250.347 438.922 251.061 438.432 251.552C437.941 252.043 437.237 252.288 436.32 252.288C435.402 252.288 434.698 252.043 434.208 251.552C433.717 251.061 433.472 250.347 433.472 249.408V242.912C433.472 241.952 433.301 241.269 432.96 240.864C432.64 240.459 432.16 240.256 431.52 240.256C430.666 240.256 429.984 240.533 429.472 241.088C428.96 241.621 428.704 242.347 428.704 243.264V249.408C428.704 251.328 427.744 252.288 425.824 252.288ZM450.67 252.352C449.07 252.352 447.747 252.107 446.702 251.616C445.678 251.125 444.91 250.389 444.398 249.408C443.886 248.405 443.63 247.157 443.63 245.664V240.448H442.542C441.859 240.448 441.326 240.267 440.942 239.904C440.579 239.541 440.398 239.019 440.398 238.336C440.398 237.653 440.579 237.141 440.942 236.8C441.326 236.437 441.859 236.256 442.542 236.256H443.63V234.272C443.63 233.333 443.875 232.619 444.366 232.128C444.857 231.637 445.561 231.392 446.478 231.392C447.395 231.392 448.099 231.637 448.59 232.128C449.081 232.619 449.326 233.333 449.326 234.272V236.256H451.95C452.654 236.256 453.187 236.437 453.55 236.8C453.934 237.141 454.126 237.653 454.126 238.336C454.126 239.019 453.934 239.541 453.55 239.904C453.187 240.267 452.654 240.448 451.95 240.448H449.326V245.472C449.326 246.261 449.507 246.848 449.87 247.232C450.254 247.595 450.851 247.776 451.662 247.776C451.961 247.776 452.249 247.744 452.526 247.68C452.803 247.616 453.059 247.584 453.294 247.584C453.635 247.563 453.913 247.669 454.126 247.904C454.339 248.117 454.446 248.619 454.446 249.408C454.446 250.048 454.35 250.592 454.158 251.04C453.966 251.467 453.625 251.776 453.134 251.968C452.835 252.075 452.43 252.16 451.918 252.224C451.406 252.309 450.99 252.352 450.67 252.352ZM461.511 252.352C460.295 252.352 459.218 252.128 458.279 251.68C457.362 251.232 456.636 250.624 456.103 249.856C455.591 249.067 455.335 248.171 455.335 247.168C455.335 246.016 455.634 245.109 456.231 244.448C456.828 243.787 457.788 243.317 459.111 243.04C460.434 242.741 462.194 242.592 464.391 242.592H466.151V245.28H464.391C463.559 245.28 462.866 245.344 462.311 245.472C461.778 245.579 461.383 245.76 461.127 246.016C460.871 246.251 460.743 246.56 460.743 246.944C460.743 247.435 460.914 247.84 461.255 248.16C461.618 248.48 462.13 248.64 462.791 248.64C463.324 248.64 463.794 248.523 464.199 248.288C464.626 248.053 464.967 247.733 465.223 247.328C465.479 246.901 465.607 246.411 465.607 245.856V242.144C465.607 241.376 465.404 240.832 464.999 240.512C464.615 240.192 463.943 240.032 462.983 240.032C462.471 240.032 461.895 240.096 461.255 240.224C460.615 240.331 459.9 240.533 459.111 240.832C458.535 241.045 458.044 241.077 457.639 240.928C457.234 240.779 456.914 240.523 456.679 240.16C456.466 239.797 456.359 239.403 456.359 238.976C456.38 238.549 456.519 238.144 456.775 237.76C457.052 237.376 457.468 237.077 458.023 236.864C459.047 236.48 459.986 236.224 460.839 236.096C461.714 235.968 462.514 235.904 463.239 235.904C464.988 235.904 466.428 236.16 467.559 236.672C468.711 237.163 469.564 237.931 470.119 238.976C470.695 240 470.983 241.323 470.983 242.944V249.408C470.983 250.347 470.759 251.061 470.311 251.552C469.863 252.043 469.212 252.288 468.359 252.288C467.484 252.288 466.812 252.043 466.343 251.552C465.895 251.061 465.671 250.347 465.671 249.408V248.576L465.863 249.024C465.756 249.707 465.511 250.293 465.127 250.784C464.743 251.275 464.242 251.659 463.623 251.936C463.004 252.213 462.3 252.352 461.511 252.352ZM482.483 252.352C480.883 252.352 479.56 252.107 478.515 251.616C477.491 251.125 476.723 250.389 476.211 249.408C475.699 248.405 475.443 247.157 475.443 245.664V240.448H474.355C473.672 240.448 473.139 240.267 472.755 239.904C472.392 239.541 472.21 239.019 472.21 238.336C472.21 237.653 472.392 237.141 472.755 236.8C473.139 236.437 473.672 236.256 474.355 236.256H475.443V234.272C475.443 233.333 475.688 232.619 476.179 232.128C476.669 231.637 477.373 231.392 478.291 231.392C479.208 231.392 479.912 231.637 480.403 232.128C480.893 232.619 481.139 233.333 481.139 234.272V236.256H483.763C484.467 236.256 485 236.437 485.363 236.8C485.747 237.141 485.939 237.653 485.939 238.336C485.939 239.019 485.747 239.541 485.363 239.904C485 240.267 484.467 240.448 483.763 240.448H481.139V245.472C481.139 246.261 481.32 246.848 481.683 247.232C482.067 247.595 482.664 247.776 483.475 247.776C483.773 247.776 484.061 247.744 484.339 247.68C484.616 247.616 484.872 247.584 485.107 247.584C485.448 247.563 485.725 247.669 485.939 247.904C486.152 248.117 486.259 248.619 486.259 249.408C486.259 250.048 486.163 250.592 485.971 251.04C485.779 251.467 485.437 251.776 484.947 251.968C484.648 252.075 484.243 252.16 483.731 252.224C483.219 252.309 482.803 252.352 482.483 252.352ZM491.23 252.288C490.334 252.288 489.641 252.021 489.15 251.488C488.659 250.955 488.414 250.187 488.414 249.184V239.072C488.414 238.069 488.659 237.301 489.15 236.768C489.641 236.235 490.334 235.968 491.23 235.968C492.147 235.968 492.851 236.235 493.342 236.768C493.854 237.301 494.11 238.069 494.11 239.072V249.184C494.11 250.187 493.865 250.955 493.374 251.488C492.883 252.021 492.169 252.288 491.23 252.288ZM491.23 233.696C490.227 233.696 489.449 233.461 488.894 232.992C488.361 232.523 488.094 231.84 488.094 230.944C488.094 230.069 488.361 229.397 488.894 228.928C489.449 228.459 490.227 228.224 491.23 228.224C492.275 228.224 493.065 228.459 493.598 228.928C494.131 229.397 494.398 230.069 494.398 230.944C494.398 231.84 494.131 232.523 493.598 232.992C493.065 233.461 492.275 233.696 491.23 233.696ZM505.382 252.352C503.633 252.352 502.107 252.021 500.806 251.36C499.505 250.699 498.491 249.749 497.766 248.512C497.041 247.275 496.678 245.813 496.678 244.128C496.678 242.848 496.881 241.707 497.286 240.704C497.691 239.68 498.278 238.816 499.046 238.112C499.814 237.387 500.731 236.843 501.798 236.48C502.865 236.096 504.059 235.904 505.382 235.904C507.131 235.904 508.657 236.235 509.958 236.896C511.259 237.557 512.262 238.507 512.966 239.744C513.691 240.96 514.054 242.421 514.054 244.128C514.054 245.387 513.851 246.528 513.446 247.552C513.041 248.576 512.454 249.451 511.686 250.176C510.939 250.88 510.022 251.424 508.934 251.808C507.867 252.171 506.683 252.352 505.382 252.352ZM505.382 248.16C505.958 248.16 506.47 248.021 506.918 247.744C507.366 247.445 507.707 247.008 507.942 246.432C508.198 245.835 508.326 245.067 508.326 244.128C508.326 242.699 508.049 241.675 507.494 241.056C506.939 240.416 506.235 240.096 505.382 240.096C504.806 240.096 504.294 240.235 503.846 240.512C503.398 240.789 503.046 241.227 502.79 241.824C502.534 242.4 502.406 243.168 502.406 244.128C502.406 245.536 502.683 246.56 503.238 247.2C503.793 247.84 504.507 248.16 505.382 248.16ZM519.48 252.288C518.584 252.288 517.891 252.043 517.4 251.552C516.909 251.061 516.664 250.347 516.664 249.408V238.816C516.664 237.899 516.899 237.195 517.368 236.704C517.859 236.213 518.552 235.968 519.448 235.968C520.344 235.968 521.027 236.213 521.496 236.704C521.965 237.195 522.2 237.899 522.2 238.816V240.32L521.848 239.008C522.36 238.005 523.085 237.237 524.024 236.704C524.984 236.171 526.072 235.904 527.288 235.904C528.547 235.904 529.581 236.149 530.392 236.64C531.203 237.109 531.811 237.856 532.216 238.88C532.621 239.883 532.824 241.152 532.824 242.688V249.408C532.824 250.347 532.579 251.061 532.088 251.552C531.597 252.043 530.893 252.288 529.976 252.288C529.059 252.288 528.355 252.043 527.864 251.552C527.373 251.061 527.128 250.347 527.128 249.408V242.912C527.128 241.952 526.957 241.269 526.616 240.864C526.296 240.459 525.816 240.256 525.176 240.256C524.323 240.256 523.64 240.533 523.128 241.088C522.616 241.621 522.36 242.347 522.36 243.264V249.408C522.36 251.328 521.4 252.288 519.48 252.288Z" fill="#141C21"/>
<defs>
<linearGradient id="paint0_linear_2762_17284" x1="415" y1="2" x2="415" y2="231" gradientUnits="userSpaceOnUse">
<stop offset="0.05" stop-color="#10161A" stop-opacity="0"/>
<stop offset="0.2" stop-color="#10161A"/>
<stop offset="0.945282" stop-color="#10161A" stop-opacity="0"/>
</linearGradient>
<linearGradient id="paint1_linear_2762_17284" x1="-32" y1="116.5" x2="864" y2="116.5" gradientUnits="userSpaceOnUse">
<stop stop-color="white" stop-opacity="0"/>
<stop offset="0.3" stop-color="white"/>
<stop offset="0.7" stop-color="white"/>
<stop offset="0.99" stop-color="white" stop-opacity="0.09"/>
</linearGradient>
<linearGradient id="paint2_linear_2762_17284" x1="403.825" y1="-16.5579" x2="403.95" y2="14.2341" gradientUnits="userSpaceOnUse">
<stop stop-color="#3AB99A"/>
<stop offset="1" stop-color="#1B9E7F"/>
</linearGradient>
<linearGradient id="paint3_linear_2762_17284" x1="403.825" y1="7.18865" x2="403.95" y2="37.9807" gradientUnits="userSpaceOnUse">
<stop stop-color="#3AB99A"/>
<stop offset="1" stop-color="#1B9E7F"/>
</linearGradient>
<linearGradient id="paint4_linear_2762_17284" x1="403.825" y1="30.9357" x2="403.95" y2="61.7277" gradientUnits="userSpaceOnUse">
<stop stop-color="#3AB99A"/>
<stop offset="1" stop-color="#1B9E7F"/>
</linearGradient>
<linearGradient id="paint5_linear_2762_17284" x1="403.825" y1="54.6828" x2="403.95" y2="85.4748" gradientUnits="userSpaceOnUse">
<stop stop-color="#3AB99A"/>
<stop offset="1" stop-color="#1B9E7F"/>
</linearGradient>
<linearGradient id="paint6_linear_2762_17284" x1="403.825" y1="78.4294" x2="403.95" y2="109.221" gradientUnits="userSpaceOnUse">
<stop stop-color="#3AB99A"/>
<stop offset="1" stop-color="#1B9E7F"/>
</linearGradient>
<linearGradient id="paint7_linear_2762_17284" x1="403.825" y1="102.176" x2="403.95" y2="132.968" gradientUnits="userSpaceOnUse">
<stop stop-color="#3AB99A"/>
<stop offset="1" stop-color="#1B9E7F"/>
</linearGradient>
<linearGradient id="paint8_linear_2762_17284" x1="403.825" y1="125.924" x2="403.95" y2="156.716" gradientUnits="userSpaceOnUse">
<stop stop-color="#3AB99A"/>
<stop offset="1" stop-color="#1B9E7F"/>
</linearGradient>
<linearGradient id="paint9_linear_2762_17284" x1="403.825" y1="149.67" x2="403.95" y2="180.462" gradientUnits="userSpaceOnUse">
<stop stop-color="#3AB99A"/>
<stop offset="1" stop-color="#1B9E7F"/>
</linearGradient>
<linearGradient id="paint10_linear_2762_17284" x1="403.825" y1="173.45" x2="403.953" y2="204.675" gradientUnits="userSpaceOnUse">
<stop stop-color="#3AB99A"/>
<stop offset="1" stop-color="#1B9E7F"/>
</linearGradient>
<linearGradient id="paint11_linear_2762_17284" x1="403.825" y1="197.63" x2="403.95" y2="228.422" gradientUnits="userSpaceOnUse">
<stop stop-color="#3AB99A"/>
<stop offset="1" stop-color="#1B9E7F"/>
</linearGradient>
<linearGradient id="paint12_linear_2762_17284" x1="403.825" y1="221.409" x2="403.953" y2="252.635" gradientUnits="userSpaceOnUse">
<stop stop-color="#3AB99A"/>
<stop offset="1" stop-color="#1B9E7F"/>
</linearGradient>
<linearGradient id="paint13_linear_2762_17284" x1="408.3" y1="150.266" x2="409.009" y2="207.075" gradientUnits="userSpaceOnUse">
<stop stop-color="#3AB99A"/>
<stop offset="1" stop-color="#1B9E7F"/>
</linearGradient>
<linearGradient id="paint14_linear_2762_17284" x1="411.762" y1="218.637" x2="412.829" y2="267.048" gradientUnits="userSpaceOnUse">
<stop stop-color="#3AB99A"/>
<stop offset="1" stop-color="#1B9E7F"/>
</linearGradient>
<clipPath id="clip0_2762_17284">
<rect width="830" height="233" fill="white"/>
</clipPath>
</defs>
</svg>
